<?xml version="1.0" encoding="utf-8" standalone="no"?>
<!DOCTYPE svg PUBLIC "-//W3C//DTD SVG 1.1//EN"
  "http://www.w3.org/Graphics/SVG/1.1/DTD/svg11.dtd">
<svg xmlns:xlink="http://www.w3.org/1999/xlink" width="460.8pt" height="345.6pt" viewBox="0 0 460.8 345.6" xmlns="http://www.w3.org/2000/svg" version="1.1">
 <metadata>
  <rdf:RDF xmlns:dc="http://purl.org/dc/elements/1.1/" xmlns:cc="http://creativecommons.org/ns#" xmlns:rdf="http://www.w3.org/1999/02/22-rdf-syntax-ns#">
   <cc:Work>
    <dc:type rdf:resource="http://purl.org/dc/dcmitype/StillImage"/>
    <dc:date>2024-12-25T17:00:11.708910</dc:date>
    <dc:format>image/svg+xml</dc:format>
    <dc:creator>
     <cc:Agent>
      <dc:title>Matplotlib v3.10.0, https://matplotlib.org/</dc:title>
     </cc:Agent>
    </dc:creator>
   </cc:Work>
  </rdf:RDF>
 </metadata>
 <defs>
  <style type="text/css">*{stroke-linejoin: round; stroke-linecap: butt}</style>
 </defs>
 <g id="figure_1">
  <g id="patch_1">
   <path d="M 0 345.6 
L 460.8 345.6 
L 460.8 0 
L 0 0 
z
" style="fill: #ffffff"/>
  </g>
  <g id="axes_1">
   <g id="patch_2">
    <path d="M 57.6 307.584 
L 414.72 307.584 
L 414.72 41.472 
L 57.6 41.472 
z
" style="fill: #ffffff"/>
   </g>
   <g id="patch_3">
    <path d="M 73.832727 307.584 
L 77.017316 307.584 
L 77.017316 287.234803 
L 73.832727 287.234803 
z
" clip-path="url(#pd1d05fd0f5)" style="fill: #00bfbf; opacity: 0.7"/>
   </g>
   <g id="patch_4">
    <path d="M 77.017316 307.584 
L 80.201904 307.584 
L 80.201904 222.487358 
L 77.017316 222.487358 
z
" clip-path="url(#pd1d05fd0f5)" style="fill: #00bfbf; opacity: 0.7"/>
   </g>
   <g id="patch_5">
    <path d="M 80.201904 307.584 
L 83.386493 307.584 
L 83.386493 265.960642 
L 80.201904 265.960642 
z
" clip-path="url(#pd1d05fd0f5)" style="fill: #00bfbf; opacity: 0.7"/>
   </g>
   <g id="patch_6">
    <path d="M 83.386493 307.584 
L 86.571081 307.584 
L 86.571081 258.560934 
L 83.386493 258.560934 
z
" clip-path="url(#pd1d05fd0f5)" style="fill: #00bfbf; opacity: 0.7"/>
   </g>
   <g id="patch_7">
    <path d="M 86.571081 307.584 
L 89.75567 307.584 
L 89.75567 277.985168 
L 86.571081 277.985168 
z
" clip-path="url(#pd1d05fd0f5)" style="fill: #00bfbf; opacity: 0.7"/>
   </g>
   <g id="patch_8">
    <path d="M 89.75567 307.584 
L 92.940258 307.584 
L 92.940258 281.685022 
L 89.75567 281.685022 
z
" clip-path="url(#pd1d05fd0f5)" style="fill: #00bfbf; opacity: 0.7"/>
   </g>
   <g id="patch_9">
    <path d="M 92.940258 307.584 
L 96.124847 307.584 
L 96.124847 290.009693 
L 92.940258 290.009693 
z
" clip-path="url(#pd1d05fd0f5)" style="fill: #00bfbf; opacity: 0.7"/>
   </g>
   <g id="patch_10">
    <path d="M 96.124847 307.584 
L 99.309435 307.584 
L 99.309435 270.58546 
L 96.124847 270.58546 
z
" clip-path="url(#pd1d05fd0f5)" style="fill: #00bfbf; opacity: 0.7"/>
   </g>
   <g id="patch_11">
    <path d="M 99.309435 307.584 
L 102.494024 307.584 
L 102.494024 253.936117 
L 99.309435 253.936117 
z
" clip-path="url(#pd1d05fd0f5)" style="fill: #00bfbf; opacity: 0.7"/>
   </g>
   <g id="patch_12">
    <path d="M 102.494024 307.584 
L 105.678612 307.584 
L 105.678612 273.36035 
L 102.494024 273.36035 
z
" clip-path="url(#pd1d05fd0f5)" style="fill: #00bfbf; opacity: 0.7"/>
   </g>
   <g id="patch_13">
    <path d="M 105.678612 307.584 
L 108.863201 307.584 
L 108.863201 237.286774 
L 105.678612 237.286774 
z
" clip-path="url(#pd1d05fd0f5)" style="fill: #00bfbf; opacity: 0.7"/>
   </g>
   <g id="patch_14">
    <path d="M 108.863201 307.584 
L 112.047789 307.584 
L 112.047789 250.236263 
L 108.863201 250.236263 
z
" clip-path="url(#pd1d05fd0f5)" style="fill: #00bfbf; opacity: 0.7"/>
   </g>
   <g id="patch_15">
    <path d="M 112.047789 307.584 
L 115.232378 307.584 
L 115.232378 194.738453 
L 112.047789 194.738453 
z
" clip-path="url(#pd1d05fd0f5)" style="fill: #00bfbf; opacity: 0.7"/>
   </g>
   <g id="patch_16">
    <path d="M 115.232378 307.584 
L 118.416966 307.584 
L 118.416966 241.911591 
L 115.232378 241.911591 
z
" clip-path="url(#pd1d05fd0f5)" style="fill: #00bfbf; opacity: 0.7"/>
   </g>
   <g id="patch_17">
    <path d="M 118.416966 307.584 
L 121.601554 307.584 
L 121.601554 163.289693 
L 118.416966 163.289693 
z
" clip-path="url(#pd1d05fd0f5)" style="fill: #00bfbf; opacity: 0.7"/>
   </g>
   <g id="patch_18">
    <path d="M 121.601554 307.584 
L 124.786143 307.584 
L 124.786143 174.389255 
L 121.601554 174.389255 
z
" clip-path="url(#pd1d05fd0f5)" style="fill: #00bfbf; opacity: 0.7"/>
   </g>
   <g id="patch_19">
    <path d="M 124.786143 307.584 
L 127.970731 307.584 
L 127.970731 204.913051 
L 124.786143 204.913051 
z
" clip-path="url(#pd1d05fd0f5)" style="fill: #00bfbf; opacity: 0.7"/>
   </g>
   <g id="patch_20">
    <path d="M 127.970731 307.584 
L 131.15532 307.584 
L 131.15532 161.439766 
L 127.970731 161.439766 
z
" clip-path="url(#pd1d05fd0f5)" style="fill: #00bfbf; opacity: 0.7"/>
   </g>
   <g id="patch_21">
    <path d="M 131.15532 307.584 
L 134.339908 307.584 
L 134.339908 212.312759 
L 131.15532 212.312759 
z
" clip-path="url(#pd1d05fd0f5)" style="fill: #00bfbf; opacity: 0.7"/>
   </g>
   <g id="patch_22">
    <path d="M 134.339908 307.584 
L 137.524497 307.584 
L 137.524497 166.989547 
L 134.339908 166.989547 
z
" clip-path="url(#pd1d05fd0f5)" style="fill: #00bfbf; opacity: 0.7"/>
   </g>
   <g id="patch_23">
    <path d="M 137.524497 307.584 
L 140.709085 307.584 
L 140.709085 203.988088 
L 137.524497 203.988088 
z
" clip-path="url(#pd1d05fd0f5)" style="fill: #00bfbf; opacity: 0.7"/>
   </g>
   <g id="patch_24">
    <path d="M 140.709085 307.584 
L 143.893674 307.584 
L 143.893674 163.289693 
L 140.709085 163.289693 
z
" clip-path="url(#pd1d05fd0f5)" style="fill: #00bfbf; opacity: 0.7"/>
   </g>
   <g id="patch_25">
    <path d="M 143.893674 307.584 
L 147.078262 307.584 
L 147.078262 144.790423 
L 143.893674 144.790423 
z
" clip-path="url(#pd1d05fd0f5)" style="fill: #00bfbf; opacity: 0.7"/>
   </g>
   <g id="patch_26">
    <path d="M 147.078262 307.584 
L 150.262851 307.584 
L 150.262851 179.939036 
L 147.078262 179.939036 
z
" clip-path="url(#pd1d05fd0f5)" style="fill: #00bfbf; opacity: 0.7"/>
   </g>
   <g id="patch_27">
    <path d="M 150.262851 307.584 
L 153.447439 307.584 
L 153.447439 138.315679 
L 150.262851 138.315679 
z
" clip-path="url(#pd1d05fd0f5)" style="fill: #00bfbf; opacity: 0.7"/>
   </g>
   <g id="patch_28">
    <path d="M 153.447439 307.584 
L 156.632028 307.584 
L 156.632028 189.188672 
L 153.447439 189.188672 
z
" clip-path="url(#pd1d05fd0f5)" style="fill: #00bfbf; opacity: 0.7"/>
   </g>
   <g id="patch_29">
    <path d="M 156.632028 307.584 
L 159.816616 307.584 
L 159.816616 129.066044 
L 156.632028 129.066044 
z
" clip-path="url(#pd1d05fd0f5)" style="fill: #00bfbf; opacity: 0.7"/>
   </g>
   <g id="patch_30">
    <path d="M 159.816616 307.584 
L 163.001205 307.584 
L 163.001205 191.963562 
L 159.816616 191.963562 
z
" clip-path="url(#pd1d05fd0f5)" style="fill: #00bfbf; opacity: 0.7"/>
   </g>
   <g id="patch_31">
    <path d="M 163.001205 307.584 
L 166.185793 307.584 
L 166.185793 123.516263 
L 163.001205 123.516263 
z
" clip-path="url(#pd1d05fd0f5)" style="fill: #00bfbf; opacity: 0.7"/>
   </g>
   <g id="patch_32">
    <path d="M 166.185793 307.584 
L 169.370382 307.584 
L 169.370382 87.442686 
L 166.185793 87.442686 
z
" clip-path="url(#pd1d05fd0f5)" style="fill: #00bfbf; opacity: 0.7"/>
   </g>
   <g id="patch_33">
    <path d="M 169.370382 307.584 
L 172.55497 307.584 
L 172.55497 174.389255 
L 169.370382 174.389255 
z
" clip-path="url(#pd1d05fd0f5)" style="fill: #00bfbf; opacity: 0.7"/>
   </g>
   <g id="patch_34">
    <path d="M 172.55497 307.584 
L 175.739559 307.584 
L 175.739559 131.840934 
L 172.55497 131.840934 
z
" clip-path="url(#pd1d05fd0f5)" style="fill: #00bfbf; opacity: 0.7"/>
   </g>
   <g id="patch_35">
    <path d="M 175.739559 307.584 
L 178.924147 307.584 
L 178.924147 179.939036 
L 175.739559 179.939036 
z
" clip-path="url(#pd1d05fd0f5)" style="fill: #00bfbf; opacity: 0.7"/>
   </g>
   <g id="patch_36">
    <path d="M 178.924147 307.584 
L 182.108736 307.584 
L 182.108736 106.86692 
L 178.924147 106.86692 
z
" clip-path="url(#pd1d05fd0f5)" style="fill: #00bfbf; opacity: 0.7"/>
   </g>
   <g id="patch_37">
    <path d="M 182.108736 307.584 
L 185.293324 307.584 
L 185.293324 163.289693 
L 182.108736 163.289693 
z
" clip-path="url(#pd1d05fd0f5)" style="fill: #00bfbf; opacity: 0.7"/>
   </g>
   <g id="patch_38">
    <path d="M 185.293324 307.584 
L 188.477913 307.584 
L 188.477913 120.741372 
L 185.293324 120.741372 
z
" clip-path="url(#pd1d05fd0f5)" style="fill: #00bfbf; opacity: 0.7"/>
   </g>
   <g id="patch_39">
    <path d="M 188.477913 307.584 
L 191.662501 307.584 
L 191.662501 136.465752 
L 188.477913 136.465752 
z
" clip-path="url(#pd1d05fd0f5)" style="fill: #00bfbf; opacity: 0.7"/>
   </g>
   <g id="patch_40">
    <path d="M 191.662501 307.584 
L 194.84709 307.584 
L 194.84709 187.338745 
L 191.662501 187.338745 
z
" clip-path="url(#pd1d05fd0f5)" style="fill: #00bfbf; opacity: 0.7"/>
   </g>
   <g id="patch_41">
    <path d="M 194.84709 307.584 
L 198.031678 307.584 
L 198.031678 116.116555 
L 194.84709 116.116555 
z
" clip-path="url(#pd1d05fd0f5)" style="fill: #00bfbf; opacity: 0.7"/>
   </g>
   <g id="patch_42">
    <path d="M 198.031678 307.584 
L 201.216266 307.584 
L 201.216266 178.089109 
L 198.031678 178.089109 
z
" clip-path="url(#pd1d05fd0f5)" style="fill: #00bfbf; opacity: 0.7"/>
   </g>
   <g id="patch_43">
    <path d="M 201.216266 307.584 
L 204.400855 307.584 
L 204.400855 141.090569 
L 201.216266 141.090569 
z
" clip-path="url(#pd1d05fd0f5)" style="fill: #00bfbf; opacity: 0.7"/>
   </g>
   <g id="patch_44">
    <path d="M 204.400855 307.584 
L 207.585443 307.584 
L 207.585443 191.038599 
L 204.400855 191.038599 
z
" clip-path="url(#pd1d05fd0f5)" style="fill: #00bfbf; opacity: 0.7"/>
   </g>
   <g id="patch_45">
    <path d="M 207.585443 307.584 
L 210.770032 307.584 
L 210.770032 166.064584 
L 207.585443 166.064584 
z
" clip-path="url(#pd1d05fd0f5)" style="fill: #00bfbf; opacity: 0.7"/>
   </g>
   <g id="patch_46">
    <path d="M 210.770032 307.584 
L 213.95462 307.584 
L 213.95462 154.965022 
L 210.770032 154.965022 
z
" clip-path="url(#pd1d05fd0f5)" style="fill: #00bfbf; opacity: 0.7"/>
   </g>
   <g id="patch_47">
    <path d="M 213.95462 307.584 
L 217.139209 307.584 
L 217.139209 224.337285 
L 213.95462 224.337285 
z
" clip-path="url(#pd1d05fd0f5)" style="fill: #00bfbf; opacity: 0.7"/>
   </g>
   <g id="patch_48">
    <path d="M 217.139209 307.584 
L 220.323797 307.584 
L 220.323797 191.038599 
L 217.139209 191.038599 
z
" clip-path="url(#pd1d05fd0f5)" style="fill: #00bfbf; opacity: 0.7"/>
   </g>
   <g id="patch_49">
    <path d="M 220.323797 307.584 
L 223.508386 307.584 
L 223.508386 233.58692 
L 220.323797 233.58692 
z
" clip-path="url(#pd1d05fd0f5)" style="fill: #00bfbf; opacity: 0.7"/>
   </g>
   <g id="patch_50">
    <path d="M 223.508386 307.584 
L 226.692974 307.584 
L 226.692974 215.08765 
L 223.508386 215.08765 
z
" clip-path="url(#pd1d05fd0f5)" style="fill: #00bfbf; opacity: 0.7"/>
   </g>
   <g id="patch_51">
    <path d="M 226.692974 307.584 
L 229.877563 307.584 
L 229.877563 251.161226 
L 226.692974 251.161226 
z
" clip-path="url(#pd1d05fd0f5)" style="fill: #00bfbf; opacity: 0.7"/>
   </g>
   <g id="patch_52">
    <path d="M 229.877563 307.584 
L 233.062151 307.584 
L 233.062151 232.661956 
L 229.877563 232.661956 
z
" clip-path="url(#pd1d05fd0f5)" style="fill: #00bfbf; opacity: 0.7"/>
   </g>
   <g id="patch_53">
    <path d="M 233.062151 307.584 
L 236.24674 307.584 
L 236.24674 236.36181 
L 233.062151 236.36181 
z
" clip-path="url(#pd1d05fd0f5)" style="fill: #00bfbf; opacity: 0.7"/>
   </g>
   <g id="patch_54">
    <path d="M 236.24674 307.584 
L 239.431328 307.584 
L 239.431328 265.960642 
L 236.24674 265.960642 
z
" clip-path="url(#pd1d05fd0f5)" style="fill: #00bfbf; opacity: 0.7"/>
   </g>
   <g id="patch_55">
    <path d="M 239.431328 307.584 
L 242.615917 307.584 
L 242.615917 248.386336 
L 239.431328 248.386336 
z
" clip-path="url(#pd1d05fd0f5)" style="fill: #00bfbf; opacity: 0.7"/>
   </g>
   <g id="patch_56">
    <path d="M 242.615917 307.584 
L 245.800505 307.584 
L 245.800505 283.534949 
L 242.615917 283.534949 
z
" clip-path="url(#pd1d05fd0f5)" style="fill: #00bfbf; opacity: 0.7"/>
   </g>
   <g id="patch_57">
    <path d="M 245.800505 307.584 
L 248.985094 307.584 
L 248.985094 275.210277 
L 245.800505 275.210277 
z
" clip-path="url(#pd1d05fd0f5)" style="fill: #00bfbf; opacity: 0.7"/>
   </g>
   <g id="patch_58">
    <path d="M 248.985094 307.584 
L 252.169682 307.584 
L 252.169682 279.835095 
L 248.985094 279.835095 
z
" clip-path="url(#pd1d05fd0f5)" style="fill: #00bfbf; opacity: 0.7"/>
   </g>
   <g id="patch_59">
    <path d="M 252.169682 307.584 
L 255.354271 307.584 
L 255.354271 276.135241 
L 252.169682 276.135241 
z
" clip-path="url(#pd1d05fd0f5)" style="fill: #00bfbf; opacity: 0.7"/>
   </g>
   <g id="patch_60">
    <path d="M 255.354271 307.584 
L 258.538859 307.584 
L 258.538859 280.760058 
L 255.354271 280.760058 
z
" clip-path="url(#pd1d05fd0f5)" style="fill: #00bfbf; opacity: 0.7"/>
   </g>
   <g id="patch_61">
    <path d="M 258.538859 307.584 
L 261.723448 307.584 
L 261.723448 290.009693 
L 258.538859 290.009693 
z
" clip-path="url(#pd1d05fd0f5)" style="fill: #00bfbf; opacity: 0.7"/>
   </g>
   <g id="patch_62">
    <path d="M 261.723448 307.584 
L 264.908036 307.584 
L 264.908036 287.234803 
L 261.723448 287.234803 
z
" clip-path="url(#pd1d05fd0f5)" style="fill: #00bfbf; opacity: 0.7"/>
   </g>
   <g id="patch_63">
    <path d="M 264.908036 307.584 
L 268.092625 307.584 
L 268.092625 301.109255 
L 264.908036 301.109255 
z
" clip-path="url(#pd1d05fd0f5)" style="fill: #00bfbf; opacity: 0.7"/>
   </g>
   <g id="patch_64">
    <path d="M 268.092625 307.584 
L 271.277213 307.584 
L 271.277213 296.484438 
L 268.092625 296.484438 
z
" clip-path="url(#pd1d05fd0f5)" style="fill: #00bfbf; opacity: 0.7"/>
   </g>
   <g id="patch_65">
    <path d="M 271.277213 307.584 
L 274.461802 307.584 
L 274.461802 302.034219 
L 271.277213 302.034219 
z
" clip-path="url(#pd1d05fd0f5)" style="fill: #00bfbf; opacity: 0.7"/>
   </g>
   <g id="patch_66">
    <path d="M 274.461802 307.584 
L 277.64639 307.584 
L 277.64639 301.109255 
L 274.461802 301.109255 
z
" clip-path="url(#pd1d05fd0f5)" style="fill: #00bfbf; opacity: 0.7"/>
   </g>
   <g id="patch_67">
    <path d="M 277.64639 307.584 
L 280.830978 307.584 
L 280.830978 300.184292 
L 277.64639 300.184292 
z
" clip-path="url(#pd1d05fd0f5)" style="fill: #00bfbf; opacity: 0.7"/>
   </g>
   <g id="patch_68">
    <path d="M 280.830978 307.584 
L 284.015567 307.584 
L 284.015567 305.734073 
L 280.830978 305.734073 
z
" clip-path="url(#pd1d05fd0f5)" style="fill: #00bfbf; opacity: 0.7"/>
   </g>
   <g id="patch_69">
    <path d="M 284.015567 307.584 
L 287.200155 307.584 
L 287.200155 299.259328 
L 284.015567 299.259328 
z
" clip-path="url(#pd1d05fd0f5)" style="fill: #00bfbf; opacity: 0.7"/>
   </g>
   <g id="patch_70">
    <path d="M 287.200155 307.584 
L 290.384744 307.584 
L 290.384744 303.884146 
L 287.200155 303.884146 
z
" clip-path="url(#pd1d05fd0f5)" style="fill: #00bfbf; opacity: 0.7"/>
   </g>
   <g id="patch_71">
    <path d="M 290.384744 307.584 
L 293.569332 307.584 
L 293.569332 304.809109 
L 290.384744 304.809109 
z
" clip-path="url(#pd1d05fd0f5)" style="fill: #00bfbf; opacity: 0.7"/>
   </g>
   <g id="patch_72">
    <path d="M 293.569332 307.584 
L 296.753921 307.584 
L 296.753921 306.659036 
L 293.569332 306.659036 
z
" clip-path="url(#pd1d05fd0f5)" style="fill: #00bfbf; opacity: 0.7"/>
   </g>
   <g id="patch_73">
    <path d="M 296.753921 307.584 
L 299.938509 307.584 
L 299.938509 302.959182 
L 296.753921 302.959182 
z
" clip-path="url(#pd1d05fd0f5)" style="fill: #00bfbf; opacity: 0.7"/>
   </g>
   <g id="patch_74">
    <path d="M 299.938509 307.584 
L 303.123098 307.584 
L 303.123098 304.809109 
L 299.938509 304.809109 
z
" clip-path="url(#pd1d05fd0f5)" style="fill: #00bfbf; opacity: 0.7"/>
   </g>
   <g id="patch_75">
    <path d="M 303.123098 307.584 
L 306.307686 307.584 
L 306.307686 304.809109 
L 303.123098 304.809109 
z
" clip-path="url(#pd1d05fd0f5)" style="fill: #00bfbf; opacity: 0.7"/>
   </g>
   <g id="patch_76">
    <path d="M 306.307686 307.584 
L 309.492275 307.584 
L 309.492275 303.884146 
L 306.307686 303.884146 
z
" clip-path="url(#pd1d05fd0f5)" style="fill: #00bfbf; opacity: 0.7"/>
   </g>
   <g id="patch_77">
    <path d="M 309.492275 307.584 
L 312.676863 307.584 
L 312.676863 304.809109 
L 309.492275 304.809109 
z
" clip-path="url(#pd1d05fd0f5)" style="fill: #00bfbf; opacity: 0.7"/>
   </g>
   <g id="patch_78">
    <path d="M 312.676863 307.584 
L 315.861452 307.584 
L 315.861452 303.884146 
L 312.676863 303.884146 
z
" clip-path="url(#pd1d05fd0f5)" style="fill: #00bfbf; opacity: 0.7"/>
   </g>
   <g id="patch_79">
    <path d="M 315.861452 307.584 
L 319.04604 307.584 
L 319.04604 305.734073 
L 315.861452 305.734073 
z
" clip-path="url(#pd1d05fd0f5)" style="fill: #00bfbf; opacity: 0.7"/>
   </g>
   <g id="patch_80">
    <path d="M 319.04604 307.584 
L 322.230629 307.584 
L 322.230629 305.734073 
L 319.04604 305.734073 
z
" clip-path="url(#pd1d05fd0f5)" style="fill: #00bfbf; opacity: 0.7"/>
   </g>
   <g id="patch_81">
    <path d="M 322.230629 307.584 
L 325.415217 307.584 
L 325.415217 307.584 
L 322.230629 307.584 
z
" clip-path="url(#pd1d05fd0f5)" style="fill: #00bfbf; opacity: 0.7"/>
   </g>
   <g id="patch_82">
    <path d="M 325.415217 307.584 
L 328.599806 307.584 
L 328.599806 306.659036 
L 325.415217 306.659036 
z
" clip-path="url(#pd1d05fd0f5)" style="fill: #00bfbf; opacity: 0.7"/>
   </g>
   <g id="patch_83">
    <path d="M 328.599806 307.584 
L 331.784394 307.584 
L 331.784394 304.809109 
L 328.599806 304.809109 
z
" clip-path="url(#pd1d05fd0f5)" style="fill: #00bfbf; opacity: 0.7"/>
   </g>
   <g id="patch_84">
    <path d="M 331.784394 307.584 
L 334.968983 307.584 
L 334.968983 307.584 
L 331.784394 307.584 
z
" clip-path="url(#pd1d05fd0f5)" style="fill: #00bfbf; opacity: 0.7"/>
   </g>
   <g id="patch_85">
    <path d="M 334.968983 307.584 
L 338.153571 307.584 
L 338.153571 306.659036 
L 334.968983 306.659036 
z
" clip-path="url(#pd1d05fd0f5)" style="fill: #00bfbf; opacity: 0.7"/>
   </g>
   <g id="patch_86">
    <path d="M 338.153571 307.584 
L 341.33816 307.584 
L 341.33816 306.659036 
L 338.153571 306.659036 
z
" clip-path="url(#pd1d05fd0f5)" style="fill: #00bfbf; opacity: 0.7"/>
   </g>
   <g id="patch_87">
    <path d="M 341.33816 307.584 
L 344.522748 307.584 
L 344.522748 307.584 
L 341.33816 307.584 
z
" clip-path="url(#pd1d05fd0f5)" style="fill: #00bfbf; opacity: 0.7"/>
   </g>
   <g id="patch_88">
    <path d="M 344.522748 307.584 
L 347.707337 307.584 
L 347.707337 307.584 
L 344.522748 307.584 
z
" clip-path="url(#pd1d05fd0f5)" style="fill: #00bfbf; opacity: 0.7"/>
   </g>
   <g id="patch_89">
    <path d="M 347.707337 307.584 
L 350.891925 307.584 
L 350.891925 306.659036 
L 347.707337 306.659036 
z
" clip-path="url(#pd1d05fd0f5)" style="fill: #00bfbf; opacity: 0.7"/>
   </g>
   <g id="patch_90">
    <path d="M 350.891925 307.584 
L 354.076514 307.584 
L 354.076514 305.734073 
L 350.891925 305.734073 
z
" clip-path="url(#pd1d05fd0f5)" style="fill: #00bfbf; opacity: 0.7"/>
   </g>
   <g id="patch_91">
    <path d="M 354.076514 307.584 
L 357.261102 307.584 
L 357.261102 307.584 
L 354.076514 307.584 
z
" clip-path="url(#pd1d05fd0f5)" style="fill: #00bfbf; opacity: 0.7"/>
   </g>
   <g id="patch_92">
    <path d="M 357.261102 307.584 
L 360.44569 307.584 
L 360.44569 307.584 
L 357.261102 307.584 
z
" clip-path="url(#pd1d05fd0f5)" style="fill: #00bfbf; opacity: 0.7"/>
   </g>
   <g id="patch_93">
    <path d="M 360.44569 307.584 
L 363.630279 307.584 
L 363.630279 307.584 
L 360.44569 307.584 
z
" clip-path="url(#pd1d05fd0f5)" style="fill: #00bfbf; opacity: 0.7"/>
   </g>
   <g id="patch_94">
    <path d="M 363.630279 307.584 
L 366.814867 307.584 
L 366.814867 307.584 
L 363.630279 307.584 
z
" clip-path="url(#pd1d05fd0f5)" style="fill: #00bfbf; opacity: 0.7"/>
   </g>
   <g id="patch_95">
    <path d="M 366.814867 307.584 
L 369.999456 307.584 
L 369.999456 307.584 
L 366.814867 307.584 
z
" clip-path="url(#pd1d05fd0f5)" style="fill: #00bfbf; opacity: 0.7"/>
   </g>
   <g id="patch_96">
    <path d="M 369.999456 307.584 
L 373.184044 307.584 
L 373.184044 307.584 
L 369.999456 307.584 
z
" clip-path="url(#pd1d05fd0f5)" style="fill: #00bfbf; opacity: 0.7"/>
   </g>
   <g id="patch_97">
    <path d="M 373.184044 307.584 
L 376.368633 307.584 
L 376.368633 307.584 
L 373.184044 307.584 
z
" clip-path="url(#pd1d05fd0f5)" style="fill: #00bfbf; opacity: 0.7"/>
   </g>
   <g id="patch_98">
    <path d="M 376.368633 307.584 
L 379.553221 307.584 
L 379.553221 307.584 
L 376.368633 307.584 
z
" clip-path="url(#pd1d05fd0f5)" style="fill: #00bfbf; opacity: 0.7"/>
   </g>
   <g id="patch_99">
    <path d="M 379.553221 307.584 
L 382.73781 307.584 
L 382.73781 306.659036 
L 379.553221 306.659036 
z
" clip-path="url(#pd1d05fd0f5)" style="fill: #00bfbf; opacity: 0.7"/>
   </g>
   <g id="patch_100">
    <path d="M 382.73781 307.584 
L 385.922398 307.584 
L 385.922398 307.584 
L 382.73781 307.584 
z
" clip-path="url(#pd1d05fd0f5)" style="fill: #00bfbf; opacity: 0.7"/>
   </g>
   <g id="patch_101">
    <path d="M 385.922398 307.584 
L 389.106987 307.584 
L 389.106987 307.584 
L 385.922398 307.584 
z
" clip-path="url(#pd1d05fd0f5)" style="fill: #00bfbf; opacity: 0.7"/>
   </g>
   <g id="patch_102">
    <path d="M 389.106987 307.584 
L 392.291575 307.584 
L 392.291575 306.659036 
L 389.106987 306.659036 
z
" clip-path="url(#pd1d05fd0f5)" style="fill: #00bfbf; opacity: 0.7"/>
   </g>
   <g id="patch_103">
    <path d="M 80.028425 307.584 
L 83.213013 307.584 
L 83.213013 300.184292 
L 80.028425 300.184292 
z
" clip-path="url(#pd1d05fd0f5)" style="fill: #ff4500; opacity: 0.7"/>
   </g>
   <g id="patch_104">
    <path d="M 83.213013 307.584 
L 86.397602 307.584 
L 86.397602 286.309839 
L 83.213013 286.309839 
z
" clip-path="url(#pd1d05fd0f5)" style="fill: #ff4500; opacity: 0.7"/>
   </g>
   <g id="patch_105">
    <path d="M 86.397602 307.584 
L 89.58219 307.584 
L 89.58219 301.109255 
L 86.397602 301.109255 
z
" clip-path="url(#pd1d05fd0f5)" style="fill: #ff4500; opacity: 0.7"/>
   </g>
   <g id="patch_106">
    <path d="M 89.58219 307.584 
L 92.766779 307.584 
L 92.766779 302.959182 
L 89.58219 302.959182 
z
" clip-path="url(#pd1d05fd0f5)" style="fill: #ff4500; opacity: 0.7"/>
   </g>
   <g id="patch_107">
    <path d="M 92.766779 307.584 
L 95.951367 307.584 
L 95.951367 304.809109 
L 92.766779 304.809109 
z
" clip-path="url(#pd1d05fd0f5)" style="fill: #ff4500; opacity: 0.7"/>
   </g>
   <g id="patch_108">
    <path d="M 95.951367 307.584 
L 99.135956 307.584 
L 99.135956 299.259328 
L 95.951367 299.259328 
z
" clip-path="url(#pd1d05fd0f5)" style="fill: #ff4500; opacity: 0.7"/>
   </g>
   <g id="patch_109">
    <path d="M 99.135956 307.584 
L 102.320544 307.584 
L 102.320544 304.809109 
L 99.135956 304.809109 
z
" clip-path="url(#pd1d05fd0f5)" style="fill: #ff4500; opacity: 0.7"/>
   </g>
   <g id="patch_110">
    <path d="M 102.320544 307.584 
L 105.505133 307.584 
L 105.505133 290.009693 
L 102.320544 290.009693 
z
" clip-path="url(#pd1d05fd0f5)" style="fill: #ff4500; opacity: 0.7"/>
   </g>
   <g id="patch_111">
    <path d="M 105.505133 307.584 
L 108.689721 307.584 
L 108.689721 268.735533 
L 105.505133 268.735533 
z
" clip-path="url(#pd1d05fd0f5)" style="fill: #ff4500; opacity: 0.7"/>
   </g>
   <g id="patch_112">
    <path d="M 108.689721 307.584 
L 111.87431 307.584 
L 111.87431 265.960642 
L 108.689721 265.960642 
z
" clip-path="url(#pd1d05fd0f5)" style="fill: #ff4500; opacity: 0.7"/>
   </g>
   <g id="patch_113">
    <path d="M 111.87431 307.584 
L 115.058898 307.584 
L 115.058898 237.286774 
L 111.87431 237.286774 
z
" clip-path="url(#pd1d05fd0f5)" style="fill: #ff4500; opacity: 0.7"/>
   </g>
   <g id="patch_114">
    <path d="M 115.058898 307.584 
L 118.243486 307.584 
L 118.243486 267.810569 
L 115.058898 267.810569 
z
" clip-path="url(#pd1d05fd0f5)" style="fill: #ff4500; opacity: 0.7"/>
   </g>
   <g id="patch_115">
    <path d="M 118.243486 307.584 
L 121.428075 307.584 
L 121.428075 233.58692 
L 118.243486 233.58692 
z
" clip-path="url(#pd1d05fd0f5)" style="fill: #ff4500; opacity: 0.7"/>
   </g>
   <g id="patch_116">
    <path d="M 121.428075 307.584 
L 124.612663 307.584 
L 124.612663 265.960642 
L 121.428075 265.960642 
z
" clip-path="url(#pd1d05fd0f5)" style="fill: #ff4500; opacity: 0.7"/>
   </g>
   <g id="patch_117">
    <path d="M 124.612663 307.584 
L 127.797252 307.584 
L 127.797252 244.686482 
L 124.612663 244.686482 
z
" clip-path="url(#pd1d05fd0f5)" style="fill: #ff4500; opacity: 0.7"/>
   </g>
   <g id="patch_118">
    <path d="M 127.797252 307.584 
L 130.98184 307.584 
L 130.98184 231.736993 
L 127.797252 231.736993 
z
" clip-path="url(#pd1d05fd0f5)" style="fill: #ff4500; opacity: 0.7"/>
   </g>
   <g id="patch_119">
    <path d="M 130.98184 307.584 
L 134.166429 307.584 
L 134.166429 236.36181 
L 130.98184 236.36181 
z
" clip-path="url(#pd1d05fd0f5)" style="fill: #ff4500; opacity: 0.7"/>
   </g>
   <g id="patch_120">
    <path d="M 134.166429 307.584 
L 137.351017 307.584 
L 137.351017 198.438307 
L 134.166429 198.438307 
z
" clip-path="url(#pd1d05fd0f5)" style="fill: #ff4500; opacity: 0.7"/>
   </g>
   <g id="patch_121">
    <path d="M 137.351017 307.584 
L 140.535606 307.584 
L 140.535606 231.736993 
L 137.351017 231.736993 
z
" clip-path="url(#pd1d05fd0f5)" style="fill: #ff4500; opacity: 0.7"/>
   </g>
   <g id="patch_122">
    <path d="M 140.535606 307.584 
L 143.720194 307.584 
L 143.720194 144.790423 
L 140.535606 144.790423 
z
" clip-path="url(#pd1d05fd0f5)" style="fill: #ff4500; opacity: 0.7"/>
   </g>
   <g id="patch_123">
    <path d="M 143.720194 307.584 
L 146.904783 307.584 
L 146.904783 207.687942 
L 143.720194 207.687942 
z
" clip-path="url(#pd1d05fd0f5)" style="fill: #ff4500; opacity: 0.7"/>
   </g>
   <g id="patch_124">
    <path d="M 146.904783 307.584 
L 150.089371 307.584 
L 150.089371 129.066044 
L 146.904783 129.066044 
z
" clip-path="url(#pd1d05fd0f5)" style="fill: #ff4500; opacity: 0.7"/>
   </g>
   <g id="patch_125">
    <path d="M 150.089371 307.584 
L 153.27396 307.584 
L 153.27396 117.966482 
L 150.089371 117.966482 
z
" clip-path="url(#pd1d05fd0f5)" style="fill: #ff4500; opacity: 0.7"/>
   </g>
   <g id="patch_126">
    <path d="M 153.27396 307.584 
L 156.458548 307.584 
L 156.458548 149.415241 
L 153.27396 149.415241 
z
" clip-path="url(#pd1d05fd0f5)" style="fill: #ff4500; opacity: 0.7"/>
   </g>
   <g id="patch_127">
    <path d="M 156.458548 307.584 
L 159.643137 307.584 
L 159.643137 112.416701 
L 156.458548 112.416701 
z
" clip-path="url(#pd1d05fd0f5)" style="fill: #ff4500; opacity: 0.7"/>
   </g>
   <g id="patch_128">
    <path d="M 159.643137 307.584 
L 162.827725 307.584 
L 162.827725 168.839474 
L 159.643137 168.839474 
z
" clip-path="url(#pd1d05fd0f5)" style="fill: #ff4500; opacity: 0.7"/>
   </g>
   <g id="patch_129">
    <path d="M 162.827725 307.584 
L 166.012314 307.584 
L 166.012314 129.991007 
L 162.827725 129.991007 
z
" clip-path="url(#pd1d05fd0f5)" style="fill: #ff4500; opacity: 0.7"/>
   </g>
   <g id="patch_130">
    <path d="M 166.012314 307.584 
L 169.196902 307.584 
L 169.196902 182.713927 
L 166.012314 182.713927 
z
" clip-path="url(#pd1d05fd0f5)" style="fill: #ff4500; opacity: 0.7"/>
   </g>
   <g id="patch_131">
    <path d="M 169.196902 307.584 
L 172.381491 307.584 
L 172.381491 96.692321 
L 169.196902 96.692321 
z
" clip-path="url(#pd1d05fd0f5)" style="fill: #ff4500; opacity: 0.7"/>
   </g>
   <g id="patch_132">
    <path d="M 172.381491 307.584 
L 175.566079 307.584 
L 175.566079 102.242102 
L 172.381491 102.242102 
z
" clip-path="url(#pd1d05fd0f5)" style="fill: #ff4500; opacity: 0.7"/>
   </g>
   <g id="patch_133">
    <path d="M 175.566079 307.584 
L 178.750668 307.584 
L 178.750668 134.615825 
L 175.566079 134.615825 
z
" clip-path="url(#pd1d05fd0f5)" style="fill: #ff4500; opacity: 0.7"/>
   </g>
   <g id="patch_134">
    <path d="M 178.750668 307.584 
L 181.935256 307.584 
L 181.935256 86.517723 
L 178.750668 86.517723 
z
" clip-path="url(#pd1d05fd0f5)" style="fill: #ff4500; opacity: 0.7"/>
   </g>
   <g id="patch_135">
    <path d="M 181.935256 307.584 
L 185.119845 307.584 
L 185.119845 144.790423 
L 181.935256 144.790423 
z
" clip-path="url(#pd1d05fd0f5)" style="fill: #ff4500; opacity: 0.7"/>
   </g>
   <g id="patch_136">
    <path d="M 185.119845 307.584 
L 188.304433 307.584 
L 188.304433 55.068964 
L 185.119845 55.068964 
z
" clip-path="url(#pd1d05fd0f5)" style="fill: #ff4500; opacity: 0.7"/>
   </g>
   <g id="patch_137">
    <path d="M 188.304433 307.584 
L 191.489022 307.584 
L 191.489022 145.715387 
L 188.304433 145.715387 
z
" clip-path="url(#pd1d05fd0f5)" style="fill: #ff4500; opacity: 0.7"/>
   </g>
   <g id="patch_138">
    <path d="M 191.489022 307.584 
L 194.67361 307.584 
L 194.67361 74.493197 
L 191.489022 74.493197 
z
" clip-path="url(#pd1d05fd0f5)" style="fill: #ff4500; opacity: 0.7"/>
   </g>
   <g id="patch_139">
    <path d="M 194.67361 307.584 
L 197.858198 307.584 
L 197.858198 54.144 
L 194.67361 54.144 
z
" clip-path="url(#pd1d05fd0f5)" style="fill: #ff4500; opacity: 0.7"/>
   </g>
   <g id="patch_140">
    <path d="M 197.858198 307.584 
L 201.042787 307.584 
L 201.042787 154.965022 
L 197.858198 154.965022 
z
" clip-path="url(#pd1d05fd0f5)" style="fill: #ff4500; opacity: 0.7"/>
   </g>
   <g id="patch_141">
    <path d="M 201.042787 307.584 
L 204.227375 307.584 
L 204.227375 89.292613 
L 201.042787 89.292613 
z
" clip-path="url(#pd1d05fd0f5)" style="fill: #ff4500; opacity: 0.7"/>
   </g>
   <g id="patch_142">
    <path d="M 204.227375 307.584 
L 207.411964 307.584 
L 207.411964 169.764438 
L 204.227375 169.764438 
z
" clip-path="url(#pd1d05fd0f5)" style="fill: #ff4500; opacity: 0.7"/>
   </g>
   <g id="patch_143">
    <path d="M 207.411964 307.584 
L 210.596552 307.584 
L 210.596552 82.817869 
L 207.411964 82.817869 
z
" clip-path="url(#pd1d05fd0f5)" style="fill: #ff4500; opacity: 0.7"/>
   </g>
   <g id="patch_144">
    <path d="M 210.596552 307.584 
L 213.781141 307.584 
L 213.781141 172.539328 
L 210.596552 172.539328 
z
" clip-path="url(#pd1d05fd0f5)" style="fill: #ff4500; opacity: 0.7"/>
   </g>
   <g id="patch_145">
    <path d="M 213.781141 307.584 
L 216.965729 307.584 
L 216.965729 154.965022 
L 213.781141 154.965022 
z
" clip-path="url(#pd1d05fd0f5)" style="fill: #ff4500; opacity: 0.7"/>
   </g>
   <g id="patch_146">
    <path d="M 216.965729 307.584 
L 220.150318 307.584 
L 220.150318 182.713927 
L 216.965729 182.713927 
z
" clip-path="url(#pd1d05fd0f5)" style="fill: #ff4500; opacity: 0.7"/>
   </g>
   <g id="patch_147">
    <path d="M 220.150318 307.584 
L 223.334906 307.584 
L 223.334906 234.511883 
L 220.150318 234.511883 
z
" clip-path="url(#pd1d05fd0f5)" style="fill: #ff4500; opacity: 0.7"/>
   </g>
   <g id="patch_148">
    <path d="M 223.334906 307.584 
L 226.519495 307.584 
L 226.519495 189.188672 
L 223.334906 189.188672 
z
" clip-path="url(#pd1d05fd0f5)" style="fill: #ff4500; opacity: 0.7"/>
   </g>
   <g id="patch_149">
    <path d="M 226.519495 307.584 
L 229.704083 307.584 
L 229.704083 231.736993 
L 226.519495 231.736993 
z
" clip-path="url(#pd1d05fd0f5)" style="fill: #ff4500; opacity: 0.7"/>
   </g>
   <g id="patch_150">
    <path d="M 229.704083 307.584 
L 232.888672 307.584 
L 232.888672 219.712467 
L 229.704083 219.712467 
z
" clip-path="url(#pd1d05fd0f5)" style="fill: #ff4500; opacity: 0.7"/>
   </g>
   <g id="patch_151">
    <path d="M 232.888672 307.584 
L 236.07326 307.584 
L 236.07326 254.86108 
L 232.888672 254.86108 
z
" clip-path="url(#pd1d05fd0f5)" style="fill: #ff4500; opacity: 0.7"/>
   </g>
   <g id="patch_152">
    <path d="M 236.07326 307.584 
L 239.257849 307.584 
L 239.257849 236.36181 
L 236.07326 236.36181 
z
" clip-path="url(#pd1d05fd0f5)" style="fill: #ff4500; opacity: 0.7"/>
   </g>
   <g id="patch_153">
    <path d="M 239.257849 307.584 
L 242.442437 307.584 
L 242.442437 254.86108 
L 239.257849 254.86108 
z
" clip-path="url(#pd1d05fd0f5)" style="fill: #ff4500; opacity: 0.7"/>
   </g>
   <g id="patch_154">
    <path d="M 242.442437 307.584 
L 245.627026 307.584 
L 245.627026 274.285314 
L 242.442437 274.285314 
z
" clip-path="url(#pd1d05fd0f5)" style="fill: #ff4500; opacity: 0.7"/>
   </g>
   <g id="patch_155">
    <path d="M 245.627026 307.584 
L 248.811614 307.584 
L 248.811614 263.185752 
L 245.627026 263.185752 
z
" clip-path="url(#pd1d05fd0f5)" style="fill: #ff4500; opacity: 0.7"/>
   </g>
   <g id="patch_156">
    <path d="M 248.811614 307.584 
L 251.996203 307.584 
L 251.996203 277.985168 
L 248.811614 277.985168 
z
" clip-path="url(#pd1d05fd0f5)" style="fill: #ff4500; opacity: 0.7"/>
   </g>
   <g id="patch_157">
    <path d="M 251.996203 307.584 
L 255.180791 307.584 
L 255.180791 280.760058 
L 251.996203 280.760058 
z
" clip-path="url(#pd1d05fd0f5)" style="fill: #ff4500; opacity: 0.7"/>
   </g>
   <g id="patch_158">
    <path d="M 255.180791 307.584 
L 258.36538 307.584 
L 258.36538 290.009693 
L 255.180791 290.009693 
z
" clip-path="url(#pd1d05fd0f5)" style="fill: #ff4500; opacity: 0.7"/>
   </g>
   <g id="patch_159">
    <path d="M 258.36538 307.584 
L 261.549968 307.584 
L 261.549968 293.709547 
L 258.36538 293.709547 
z
" clip-path="url(#pd1d05fd0f5)" style="fill: #ff4500; opacity: 0.7"/>
   </g>
   <g id="patch_160">
    <path d="M 261.549968 307.584 
L 264.734557 307.584 
L 264.734557 289.08473 
L 261.549968 289.08473 
z
" clip-path="url(#pd1d05fd0f5)" style="fill: #ff4500; opacity: 0.7"/>
   </g>
   <g id="patch_161">
    <path d="M 264.734557 307.584 
L 267.919145 307.584 
L 267.919145 288.159766 
L 264.734557 288.159766 
z
" clip-path="url(#pd1d05fd0f5)" style="fill: #ff4500; opacity: 0.7"/>
   </g>
   <g id="patch_162">
    <path d="M 267.919145 307.584 
L 271.103734 307.584 
L 271.103734 292.784584 
L 267.919145 292.784584 
z
" clip-path="url(#pd1d05fd0f5)" style="fill: #ff4500; opacity: 0.7"/>
   </g>
   <g id="patch_163">
    <path d="M 271.103734 307.584 
L 274.288322 307.584 
L 274.288322 295.559474 
L 271.103734 295.559474 
z
" clip-path="url(#pd1d05fd0f5)" style="fill: #ff4500; opacity: 0.7"/>
   </g>
   <g id="patch_164">
    <path d="M 274.288322 307.584 
L 277.47291 307.584 
L 277.47291 298.334365 
L 274.288322 298.334365 
z
" clip-path="url(#pd1d05fd0f5)" style="fill: #ff4500; opacity: 0.7"/>
   </g>
   <g id="patch_165">
    <path d="M 277.47291 307.584 
L 280.657499 307.584 
L 280.657499 302.034219 
L 277.47291 302.034219 
z
" clip-path="url(#pd1d05fd0f5)" style="fill: #ff4500; opacity: 0.7"/>
   </g>
   <g id="patch_166">
    <path d="M 280.657499 307.584 
L 283.842087 307.584 
L 283.842087 295.559474 
L 280.657499 295.559474 
z
" clip-path="url(#pd1d05fd0f5)" style="fill: #ff4500; opacity: 0.7"/>
   </g>
   <g id="patch_167">
    <path d="M 283.842087 307.584 
L 287.026676 307.584 
L 287.026676 296.484438 
L 283.842087 296.484438 
z
" clip-path="url(#pd1d05fd0f5)" style="fill: #ff4500; opacity: 0.7"/>
   </g>
   <g id="patch_168">
    <path d="M 287.026676 307.584 
L 290.211264 307.584 
L 290.211264 299.259328 
L 287.026676 299.259328 
z
" clip-path="url(#pd1d05fd0f5)" style="fill: #ff4500; opacity: 0.7"/>
   </g>
   <g id="patch_169">
    <path d="M 290.211264 307.584 
L 293.395853 307.584 
L 293.395853 305.734073 
L 290.211264 305.734073 
z
" clip-path="url(#pd1d05fd0f5)" style="fill: #ff4500; opacity: 0.7"/>
   </g>
   <g id="patch_170">
    <path d="M 293.395853 307.584 
L 296.580441 307.584 
L 296.580441 303.884146 
L 293.395853 303.884146 
z
" clip-path="url(#pd1d05fd0f5)" style="fill: #ff4500; opacity: 0.7"/>
   </g>
   <g id="patch_171">
    <path d="M 296.580441 307.584 
L 299.76503 307.584 
L 299.76503 302.959182 
L 296.580441 302.959182 
z
" clip-path="url(#pd1d05fd0f5)" style="fill: #ff4500; opacity: 0.7"/>
   </g>
   <g id="patch_172">
    <path d="M 299.76503 307.584 
L 302.949618 307.584 
L 302.949618 301.109255 
L 299.76503 301.109255 
z
" clip-path="url(#pd1d05fd0f5)" style="fill: #ff4500; opacity: 0.7"/>
   </g>
   <g id="patch_173">
    <path d="M 302.949618 307.584 
L 306.134207 307.584 
L 306.134207 302.959182 
L 302.949618 302.959182 
z
" clip-path="url(#pd1d05fd0f5)" style="fill: #ff4500; opacity: 0.7"/>
   </g>
   <g id="patch_174">
    <path d="M 306.134207 307.584 
L 309.318795 307.584 
L 309.318795 303.884146 
L 306.134207 303.884146 
z
" clip-path="url(#pd1d05fd0f5)" style="fill: #ff4500; opacity: 0.7"/>
   </g>
   <g id="patch_175">
    <path d="M 309.318795 307.584 
L 312.503384 307.584 
L 312.503384 304.809109 
L 309.318795 304.809109 
z
" clip-path="url(#pd1d05fd0f5)" style="fill: #ff4500; opacity: 0.7"/>
   </g>
   <g id="patch_176">
    <path d="M 312.503384 307.584 
L 315.687972 307.584 
L 315.687972 302.959182 
L 312.503384 302.959182 
z
" clip-path="url(#pd1d05fd0f5)" style="fill: #ff4500; opacity: 0.7"/>
   </g>
   <g id="patch_177">
    <path d="M 315.687972 307.584 
L 318.872561 307.584 
L 318.872561 304.809109 
L 315.687972 304.809109 
z
" clip-path="url(#pd1d05fd0f5)" style="fill: #ff4500; opacity: 0.7"/>
   </g>
   <g id="patch_178">
    <path d="M 318.872561 307.584 
L 322.057149 307.584 
L 322.057149 305.734073 
L 318.872561 305.734073 
z
" clip-path="url(#pd1d05fd0f5)" style="fill: #ff4500; opacity: 0.7"/>
   </g>
   <g id="patch_179">
    <path d="M 322.057149 307.584 
L 325.241738 307.584 
L 325.241738 305.734073 
L 322.057149 305.734073 
z
" clip-path="url(#pd1d05fd0f5)" style="fill: #ff4500; opacity: 0.7"/>
   </g>
   <g id="patch_180">
    <path d="M 325.241738 307.584 
L 328.426326 307.584 
L 328.426326 303.884146 
L 325.241738 303.884146 
z
" clip-path="url(#pd1d05fd0f5)" style="fill: #ff4500; opacity: 0.7"/>
   </g>
   <g id="patch_181">
    <path d="M 328.426326 307.584 
L 331.610915 307.584 
L 331.610915 307.584 
L 328.426326 307.584 
z
" clip-path="url(#pd1d05fd0f5)" style="fill: #ff4500; opacity: 0.7"/>
   </g>
   <g id="patch_182">
    <path d="M 331.610915 307.584 
L 334.795503 307.584 
L 334.795503 307.584 
L 331.610915 307.584 
z
" clip-path="url(#pd1d05fd0f5)" style="fill: #ff4500; opacity: 0.7"/>
   </g>
   <g id="patch_183">
    <path d="M 334.795503 307.584 
L 337.980092 307.584 
L 337.980092 306.659036 
L 334.795503 306.659036 
z
" clip-path="url(#pd1d05fd0f5)" style="fill: #ff4500; opacity: 0.7"/>
   </g>
   <g id="patch_184">
    <path d="M 337.980092 307.584 
L 341.16468 307.584 
L 341.16468 307.584 
L 337.980092 307.584 
z
" clip-path="url(#pd1d05fd0f5)" style="fill: #ff4500; opacity: 0.7"/>
   </g>
   <g id="patch_185">
    <path d="M 341.16468 307.584 
L 344.349269 307.584 
L 344.349269 304.809109 
L 341.16468 304.809109 
z
" clip-path="url(#pd1d05fd0f5)" style="fill: #ff4500; opacity: 0.7"/>
   </g>
   <g id="patch_186">
    <path d="M 344.349269 307.584 
L 347.533857 307.584 
L 347.533857 307.584 
L 344.349269 307.584 
z
" clip-path="url(#pd1d05fd0f5)" style="fill: #ff4500; opacity: 0.7"/>
   </g>
   <g id="patch_187">
    <path d="M 347.533857 307.584 
L 350.718446 307.584 
L 350.718446 306.659036 
L 347.533857 306.659036 
z
" clip-path="url(#pd1d05fd0f5)" style="fill: #ff4500; opacity: 0.7"/>
   </g>
   <g id="patch_188">
    <path d="M 350.718446 307.584 
L 353.903034 307.584 
L 353.903034 306.659036 
L 350.718446 306.659036 
z
" clip-path="url(#pd1d05fd0f5)" style="fill: #ff4500; opacity: 0.7"/>
   </g>
   <g id="patch_189">
    <path d="M 353.903034 307.584 
L 357.087622 307.584 
L 357.087622 306.659036 
L 353.903034 306.659036 
z
" clip-path="url(#pd1d05fd0f5)" style="fill: #ff4500; opacity: 0.7"/>
   </g>
   <g id="patch_190">
    <path d="M 357.087622 307.584 
L 360.272211 307.584 
L 360.272211 305.734073 
L 357.087622 305.734073 
z
" clip-path="url(#pd1d05fd0f5)" style="fill: #ff4500; opacity: 0.7"/>
   </g>
   <g id="patch_191">
    <path d="M 360.272211 307.584 
L 363.456799 307.584 
L 363.456799 306.659036 
L 360.272211 306.659036 
z
" clip-path="url(#pd1d05fd0f5)" style="fill: #ff4500; opacity: 0.7"/>
   </g>
   <g id="patch_192">
    <path d="M 363.456799 307.584 
L 366.641388 307.584 
L 366.641388 307.584 
L 363.456799 307.584 
z
" clip-path="url(#pd1d05fd0f5)" style="fill: #ff4500; opacity: 0.7"/>
   </g>
   <g id="patch_193">
    <path d="M 366.641388 307.584 
L 369.825976 307.584 
L 369.825976 306.659036 
L 366.641388 306.659036 
z
" clip-path="url(#pd1d05fd0f5)" style="fill: #ff4500; opacity: 0.7"/>
   </g>
   <g id="patch_194">
    <path d="M 369.825976 307.584 
L 373.010565 307.584 
L 373.010565 307.584 
L 369.825976 307.584 
z
" clip-path="url(#pd1d05fd0f5)" style="fill: #ff4500; opacity: 0.7"/>
   </g>
   <g id="patch_195">
    <path d="M 373.010565 307.584 
L 376.195153 307.584 
L 376.195153 307.584 
L 373.010565 307.584 
z
" clip-path="url(#pd1d05fd0f5)" style="fill: #ff4500; opacity: 0.7"/>
   </g>
   <g id="patch_196">
    <path d="M 376.195153 307.584 
L 379.379742 307.584 
L 379.379742 307.584 
L 376.195153 307.584 
z
" clip-path="url(#pd1d05fd0f5)" style="fill: #ff4500; opacity: 0.7"/>
   </g>
   <g id="patch_197">
    <path d="M 379.379742 307.584 
L 382.56433 307.584 
L 382.56433 306.659036 
L 379.379742 306.659036 
z
" clip-path="url(#pd1d05fd0f5)" style="fill: #ff4500; opacity: 0.7"/>
   </g>
   <g id="patch_198">
    <path d="M 382.56433 307.584 
L 385.748919 307.584 
L 385.748919 306.659036 
L 382.56433 306.659036 
z
" clip-path="url(#pd1d05fd0f5)" style="fill: #ff4500; opacity: 0.7"/>
   </g>
   <g id="patch_199">
    <path d="M 385.748919 307.584 
L 388.933507 307.584 
L 388.933507 306.659036 
L 385.748919 306.659036 
z
" clip-path="url(#pd1d05fd0f5)" style="fill: #ff4500; opacity: 0.7"/>
   </g>
   <g id="patch_200">
    <path d="M 388.933507 307.584 
L 392.118096 307.584 
L 392.118096 307.584 
L 388.933507 307.584 
z
" clip-path="url(#pd1d05fd0f5)" style="fill: #ff4500; opacity: 0.7"/>
   </g>
   <g id="patch_201">
    <path d="M 392.118096 307.584 
L 395.302684 307.584 
L 395.302684 306.659036 
L 392.118096 306.659036 
z
" clip-path="url(#pd1d05fd0f5)" style="fill: #ff4500; opacity: 0.7"/>
   </g>
   <g id="patch_202">
    <path d="M 395.302684 307.584 
L 398.487273 307.584 
L 398.487273 306.659036 
L 395.302684 306.659036 
z
" clip-path="url(#pd1d05fd0f5)" style="fill: #ff4500; opacity: 0.7"/>
   </g>
   <g id="matplotlib.axis_1">
    <g id="xtick_1">
     <g id="line2d_1">
      <defs>
       <path id="mf304af74d9" d="M 0 0 
L 0 3.5 
" style="stroke: #000000; stroke-width: 0.8"/>
      </defs>
      <g>
       <use xlink:href="#mf304af74d9" x="62.680472" y="307.584" style="stroke: #000000; stroke-width: 0.8"/>
      </g>
     </g>
     <g id="text_1">
      <!-- 0 -->
      <g transform="translate(59.499222 322.182437) scale(0.1 -0.1)">
       <defs>
        <path id="DejaVuSans-30" d="M 2034 4250 
Q 1547 4250 1301 3770 
Q 1056 3291 1056 2328 
Q 1056 1369 1301 889 
Q 1547 409 2034 409 
Q 2525 409 2770 889 
Q 3016 1369 3016 2328 
Q 3016 3291 2770 3770 
Q 2525 4250 2034 4250 
z
M 2034 4750 
Q 2819 4750 3233 4129 
Q 3647 3509 3647 2328 
Q 3647 1150 3233 529 
Q 2819 -91 2034 -91 
Q 1250 -91 836 529 
Q 422 1150 422 2328 
Q 422 3509 836 4129 
Q 1250 4750 2034 4750 
z
" transform="scale(0.015625)"/>
       </defs>
       <use xlink:href="#DejaVuSans-30"/>
      </g>
     </g>
    </g>
    <g id="xtick_2">
     <g id="line2d_2">
      <g>
       <use xlink:href="#mf304af74d9" x="124.637446" y="307.584" style="stroke: #000000; stroke-width: 0.8"/>
      </g>
     </g>
     <g id="text_2">
      <!-- 50 -->
      <g transform="translate(118.274946 322.182437) scale(0.1 -0.1)">
       <defs>
        <path id="DejaVuSans-35" d="M 691 4666 
L 3169 4666 
L 3169 4134 
L 1269 4134 
L 1269 2991 
Q 1406 3038 1543 3061 
Q 1681 3084 1819 3084 
Q 2600 3084 3056 2656 
Q 3513 2228 3513 1497 
Q 3513 744 3044 326 
Q 2575 -91 1722 -91 
Q 1428 -91 1123 -41 
Q 819 9 494 109 
L 494 744 
Q 775 591 1075 516 
Q 1375 441 1709 441 
Q 2250 441 2565 725 
Q 2881 1009 2881 1497 
Q 2881 1984 2565 2268 
Q 2250 2553 1709 2553 
Q 1456 2553 1204 2497 
Q 953 2441 691 2322 
L 691 4666 
z
" transform="scale(0.015625)"/>
       </defs>
       <use xlink:href="#DejaVuSans-35"/>
       <use xlink:href="#DejaVuSans-30" transform="translate(63.623047 0)"/>
      </g>
     </g>
    </g>
    <g id="xtick_3">
     <g id="line2d_3">
      <g>
       <use xlink:href="#mf304af74d9" x="186.594421" y="307.584" style="stroke: #000000; stroke-width: 0.8"/>
      </g>
     </g>
     <g id="text_3">
      <!-- 100 -->
      <g transform="translate(177.050671 322.182437) scale(0.1 -0.1)">
       <defs>
        <path id="DejaVuSans-31" d="M 794 531 
L 1825 531 
L 1825 4091 
L 703 3866 
L 703 4441 
L 1819 4666 
L 2450 4666 
L 2450 531 
L 3481 531 
L 3481 0 
L 794 0 
L 794 531 
z
" transform="scale(0.015625)"/>
       </defs>
       <use xlink:href="#DejaVuSans-31"/>
       <use xlink:href="#DejaVuSans-30" transform="translate(63.623047 0)"/>
       <use xlink:href="#DejaVuSans-30" transform="translate(127.246094 0)"/>
      </g>
     </g>
    </g>
    <g id="xtick_4">
     <g id="line2d_4">
      <g>
       <use xlink:href="#mf304af74d9" x="248.551395" y="307.584" style="stroke: #000000; stroke-width: 0.8"/>
      </g>
     </g>
     <g id="text_4">
      <!-- 150 -->
      <g transform="translate(239.007645 322.182437) scale(0.1 -0.1)">
       <use xlink:href="#DejaVuSans-31"/>
       <use xlink:href="#DejaVuSans-35" transform="translate(63.623047 0)"/>
       <use xlink:href="#DejaVuSans-30" transform="translate(127.246094 0)"/>
      </g>
     </g>
    </g>
    <g id="xtick_5">
     <g id="line2d_5">
      <g>
       <use xlink:href="#mf304af74d9" x="310.508369" y="307.584" style="stroke: #000000; stroke-width: 0.8"/>
      </g>
     </g>
     <g id="text_5">
      <!-- 200 -->
      <g transform="translate(300.964619 322.182437) scale(0.1 -0.1)">
       <defs>
        <path id="DejaVuSans-32" d="M 1228 531 
L 3431 531 
L 3431 0 
L 469 0 
L 469 531 
Q 828 903 1448 1529 
Q 2069 2156 2228 2338 
Q 2531 2678 2651 2914 
Q 2772 3150 2772 3378 
Q 2772 3750 2511 3984 
Q 2250 4219 1831 4219 
Q 1534 4219 1204 4116 
Q 875 4013 500 3803 
L 500 4441 
Q 881 4594 1212 4672 
Q 1544 4750 1819 4750 
Q 2544 4750 2975 4387 
Q 3406 4025 3406 3419 
Q 3406 3131 3298 2873 
Q 3191 2616 2906 2266 
Q 2828 2175 2409 1742 
Q 1991 1309 1228 531 
z
" transform="scale(0.015625)"/>
       </defs>
       <use xlink:href="#DejaVuSans-32"/>
       <use xlink:href="#DejaVuSans-30" transform="translate(63.623047 0)"/>
       <use xlink:href="#DejaVuSans-30" transform="translate(127.246094 0)"/>
      </g>
     </g>
    </g>
    <g id="xtick_6">
     <g id="line2d_6">
      <g>
       <use xlink:href="#mf304af74d9" x="372.465344" y="307.584" style="stroke: #000000; stroke-width: 0.8"/>
      </g>
     </g>
     <g id="text_6">
      <!-- 250 -->
      <g transform="translate(362.921594 322.182437) scale(0.1 -0.1)">
       <use xlink:href="#DejaVuSans-32"/>
       <use xlink:href="#DejaVuSans-35" transform="translate(63.623047 0)"/>
       <use xlink:href="#DejaVuSans-30" transform="translate(127.246094 0)"/>
      </g>
     </g>
    </g>
    <g id="text_7">
     <!-- Number of Words per Turn -->
     <g transform="translate(170.532656 335.860562) scale(0.1 -0.1)">
      <defs>
       <path id="DejaVuSans-4e" d="M 628 4666 
L 1478 4666 
L 3547 763 
L 3547 4666 
L 4159 4666 
L 4159 0 
L 3309 0 
L 1241 3903 
L 1241 0 
L 628 0 
L 628 4666 
z
" transform="scale(0.015625)"/>
       <path id="DejaVuSans-75" d="M 544 1381 
L 544 3500 
L 1119 3500 
L 1119 1403 
Q 1119 906 1312 657 
Q 1506 409 1894 409 
Q 2359 409 2629 706 
Q 2900 1003 2900 1516 
L 2900 3500 
L 3475 3500 
L 3475 0 
L 2900 0 
L 2900 538 
Q 2691 219 2414 64 
Q 2138 -91 1772 -91 
Q 1169 -91 856 284 
Q 544 659 544 1381 
z
M 1991 3584 
L 1991 3584 
z
" transform="scale(0.015625)"/>
       <path id="DejaVuSans-6d" d="M 3328 2828 
Q 3544 3216 3844 3400 
Q 4144 3584 4550 3584 
Q 5097 3584 5394 3201 
Q 5691 2819 5691 2113 
L 5691 0 
L 5113 0 
L 5113 2094 
Q 5113 2597 4934 2840 
Q 4756 3084 4391 3084 
Q 3944 3084 3684 2787 
Q 3425 2491 3425 1978 
L 3425 0 
L 2847 0 
L 2847 2094 
Q 2847 2600 2669 2842 
Q 2491 3084 2119 3084 
Q 1678 3084 1418 2786 
Q 1159 2488 1159 1978 
L 1159 0 
L 581 0 
L 581 3500 
L 1159 3500 
L 1159 2956 
Q 1356 3278 1631 3431 
Q 1906 3584 2284 3584 
Q 2666 3584 2933 3390 
Q 3200 3197 3328 2828 
z
" transform="scale(0.015625)"/>
       <path id="DejaVuSans-62" d="M 3116 1747 
Q 3116 2381 2855 2742 
Q 2594 3103 2138 3103 
Q 1681 3103 1420 2742 
Q 1159 2381 1159 1747 
Q 1159 1113 1420 752 
Q 1681 391 2138 391 
Q 2594 391 2855 752 
Q 3116 1113 3116 1747 
z
M 1159 2969 
Q 1341 3281 1617 3432 
Q 1894 3584 2278 3584 
Q 2916 3584 3314 3078 
Q 3713 2572 3713 1747 
Q 3713 922 3314 415 
Q 2916 -91 2278 -91 
Q 1894 -91 1617 61 
Q 1341 213 1159 525 
L 1159 0 
L 581 0 
L 581 4863 
L 1159 4863 
L 1159 2969 
z
" transform="scale(0.015625)"/>
       <path id="DejaVuSans-65" d="M 3597 1894 
L 3597 1613 
L 953 1613 
Q 991 1019 1311 708 
Q 1631 397 2203 397 
Q 2534 397 2845 478 
Q 3156 559 3463 722 
L 3463 178 
Q 3153 47 2828 -22 
Q 2503 -91 2169 -91 
Q 1331 -91 842 396 
Q 353 884 353 1716 
Q 353 2575 817 3079 
Q 1281 3584 2069 3584 
Q 2775 3584 3186 3129 
Q 3597 2675 3597 1894 
z
M 3022 2063 
Q 3016 2534 2758 2815 
Q 2500 3097 2075 3097 
Q 1594 3097 1305 2825 
Q 1016 2553 972 2059 
L 3022 2063 
z
" transform="scale(0.015625)"/>
       <path id="DejaVuSans-72" d="M 2631 2963 
Q 2534 3019 2420 3045 
Q 2306 3072 2169 3072 
Q 1681 3072 1420 2755 
Q 1159 2438 1159 1844 
L 1159 0 
L 581 0 
L 581 3500 
L 1159 3500 
L 1159 2956 
Q 1341 3275 1631 3429 
Q 1922 3584 2338 3584 
Q 2397 3584 2469 3576 
Q 2541 3569 2628 3553 
L 2631 2963 
z
" transform="scale(0.015625)"/>
       <path id="DejaVuSans-20" transform="scale(0.015625)"/>
       <path id="DejaVuSans-6f" d="M 1959 3097 
Q 1497 3097 1228 2736 
Q 959 2375 959 1747 
Q 959 1119 1226 758 
Q 1494 397 1959 397 
Q 2419 397 2687 759 
Q 2956 1122 2956 1747 
Q 2956 2369 2687 2733 
Q 2419 3097 1959 3097 
z
M 1959 3584 
Q 2709 3584 3137 3096 
Q 3566 2609 3566 1747 
Q 3566 888 3137 398 
Q 2709 -91 1959 -91 
Q 1206 -91 779 398 
Q 353 888 353 1747 
Q 353 2609 779 3096 
Q 1206 3584 1959 3584 
z
" transform="scale(0.015625)"/>
       <path id="DejaVuSans-66" d="M 2375 4863 
L 2375 4384 
L 1825 4384 
Q 1516 4384 1395 4259 
Q 1275 4134 1275 3809 
L 1275 3500 
L 2222 3500 
L 2222 3053 
L 1275 3053 
L 1275 0 
L 697 0 
L 697 3053 
L 147 3053 
L 147 3500 
L 697 3500 
L 697 3744 
Q 697 4328 969 4595 
Q 1241 4863 1831 4863 
L 2375 4863 
z
" transform="scale(0.015625)"/>
       <path id="DejaVuSans-57" d="M 213 4666 
L 850 4666 
L 1831 722 
L 2809 4666 
L 3519 4666 
L 4500 722 
L 5478 4666 
L 6119 4666 
L 4947 0 
L 4153 0 
L 3169 4050 
L 2175 0 
L 1381 0 
L 213 4666 
z
" transform="scale(0.015625)"/>
       <path id="DejaVuSans-64" d="M 2906 2969 
L 2906 4863 
L 3481 4863 
L 3481 0 
L 2906 0 
L 2906 525 
Q 2725 213 2448 61 
Q 2172 -91 1784 -91 
Q 1150 -91 751 415 
Q 353 922 353 1747 
Q 353 2572 751 3078 
Q 1150 3584 1784 3584 
Q 2172 3584 2448 3432 
Q 2725 3281 2906 2969 
z
M 947 1747 
Q 947 1113 1208 752 
Q 1469 391 1925 391 
Q 2381 391 2643 752 
Q 2906 1113 2906 1747 
Q 2906 2381 2643 2742 
Q 2381 3103 1925 3103 
Q 1469 3103 1208 2742 
Q 947 2381 947 1747 
z
" transform="scale(0.015625)"/>
       <path id="DejaVuSans-73" d="M 2834 3397 
L 2834 2853 
Q 2591 2978 2328 3040 
Q 2066 3103 1784 3103 
Q 1356 3103 1142 2972 
Q 928 2841 928 2578 
Q 928 2378 1081 2264 
Q 1234 2150 1697 2047 
L 1894 2003 
Q 2506 1872 2764 1633 
Q 3022 1394 3022 966 
Q 3022 478 2636 193 
Q 2250 -91 1575 -91 
Q 1294 -91 989 -36 
Q 684 19 347 128 
L 347 722 
Q 666 556 975 473 
Q 1284 391 1588 391 
Q 1994 391 2212 530 
Q 2431 669 2431 922 
Q 2431 1156 2273 1281 
Q 2116 1406 1581 1522 
L 1381 1569 
Q 847 1681 609 1914 
Q 372 2147 372 2553 
Q 372 3047 722 3315 
Q 1072 3584 1716 3584 
Q 2034 3584 2315 3537 
Q 2597 3491 2834 3397 
z
" transform="scale(0.015625)"/>
       <path id="DejaVuSans-70" d="M 1159 525 
L 1159 -1331 
L 581 -1331 
L 581 3500 
L 1159 3500 
L 1159 2969 
Q 1341 3281 1617 3432 
Q 1894 3584 2278 3584 
Q 2916 3584 3314 3078 
Q 3713 2572 3713 1747 
Q 3713 922 3314 415 
Q 2916 -91 2278 -91 
Q 1894 -91 1617 61 
Q 1341 213 1159 525 
z
M 3116 1747 
Q 3116 2381 2855 2742 
Q 2594 3103 2138 3103 
Q 1681 3103 1420 2742 
Q 1159 2381 1159 1747 
Q 1159 1113 1420 752 
Q 1681 391 2138 391 
Q 2594 391 2855 752 
Q 3116 1113 3116 1747 
z
" transform="scale(0.015625)"/>
       <path id="DejaVuSans-54" d="M -19 4666 
L 3928 4666 
L 3928 4134 
L 2272 4134 
L 2272 0 
L 1638 0 
L 1638 4134 
L -19 4134 
L -19 4666 
z
" transform="scale(0.015625)"/>
       <path id="DejaVuSans-6e" d="M 3513 2113 
L 3513 0 
L 2938 0 
L 2938 2094 
Q 2938 2591 2744 2837 
Q 2550 3084 2163 3084 
Q 1697 3084 1428 2787 
Q 1159 2491 1159 1978 
L 1159 0 
L 581 0 
L 581 3500 
L 1159 3500 
L 1159 2956 
Q 1366 3272 1645 3428 
Q 1925 3584 2291 3584 
Q 2894 3584 3203 3211 
Q 3513 2838 3513 2113 
z
" transform="scale(0.015625)"/>
      </defs>
      <use xlink:href="#DejaVuSans-4e"/>
      <use xlink:href="#DejaVuSans-75" transform="translate(74.804688 0)"/>
      <use xlink:href="#DejaVuSans-6d" transform="translate(138.183594 0)"/>
      <use xlink:href="#DejaVuSans-62" transform="translate(235.595703 0)"/>
      <use xlink:href="#DejaVuSans-65" transform="translate(299.072266 0)"/>
      <use xlink:href="#DejaVuSans-72" transform="translate(360.595703 0)"/>
      <use xlink:href="#DejaVuSans-20" transform="translate(401.708984 0)"/>
      <use xlink:href="#DejaVuSans-6f" transform="translate(433.496094 0)"/>
      <use xlink:href="#DejaVuSans-66" transform="translate(494.677734 0)"/>
      <use xlink:href="#DejaVuSans-20" transform="translate(529.882812 0)"/>
      <use xlink:href="#DejaVuSans-57" transform="translate(561.669922 0)"/>
      <use xlink:href="#DejaVuSans-6f" transform="translate(654.671875 0)"/>
      <use xlink:href="#DejaVuSans-72" transform="translate(715.853516 0)"/>
      <use xlink:href="#DejaVuSans-64" transform="translate(755.216797 0)"/>
      <use xlink:href="#DejaVuSans-73" transform="translate(818.693359 0)"/>
      <use xlink:href="#DejaVuSans-20" transform="translate(870.792969 0)"/>
      <use xlink:href="#DejaVuSans-70" transform="translate(902.580078 0)"/>
      <use xlink:href="#DejaVuSans-65" transform="translate(966.056641 0)"/>
      <use xlink:href="#DejaVuSans-72" transform="translate(1027.580078 0)"/>
      <use xlink:href="#DejaVuSans-20" transform="translate(1068.693359 0)"/>
      <use xlink:href="#DejaVuSans-54" transform="translate(1100.480469 0)"/>
      <use xlink:href="#DejaVuSans-75" transform="translate(1146.439453 0)"/>
      <use xlink:href="#DejaVuSans-72" transform="translate(1209.818359 0)"/>
      <use xlink:href="#DejaVuSans-6e" transform="translate(1249.181641 0)"/>
     </g>
    </g>
   </g>
   <g id="matplotlib.axis_2">
    <g id="ytick_1">
     <g id="line2d_7">
      <defs>
       <path id="m71c6c0b3bc" d="M 0 0 
L -3.5 0 
" style="stroke: #000000; stroke-width: 0.8"/>
      </defs>
      <g>
       <use xlink:href="#m71c6c0b3bc" x="57.6" y="307.584" style="stroke: #000000; stroke-width: 0.8"/>
      </g>
     </g>
     <g id="text_8">
      <!-- 0 -->
      <g transform="translate(44.2375 311.383219) scale(0.1 -0.1)">
       <use xlink:href="#DejaVuSans-30"/>
      </g>
     </g>
    </g>
    <g id="ytick_2">
     <g id="line2d_8">
      <g>
       <use xlink:href="#m71c6c0b3bc" x="57.6" y="261.335825" style="stroke: #000000; stroke-width: 0.8"/>
      </g>
     </g>
     <g id="text_9">
      <!-- 50 -->
      <g transform="translate(37.875 265.135044) scale(0.1 -0.1)">
       <use xlink:href="#DejaVuSans-35"/>
       <use xlink:href="#DejaVuSans-30" transform="translate(63.623047 0)"/>
      </g>
     </g>
    </g>
    <g id="ytick_3">
     <g id="line2d_9">
      <g>
       <use xlink:href="#m71c6c0b3bc" x="57.6" y="215.08765" style="stroke: #000000; stroke-width: 0.8"/>
      </g>
     </g>
     <g id="text_10">
      <!-- 100 -->
      <g transform="translate(31.5125 218.886868) scale(0.1 -0.1)">
       <use xlink:href="#DejaVuSans-31"/>
       <use xlink:href="#DejaVuSans-30" transform="translate(63.623047 0)"/>
       <use xlink:href="#DejaVuSans-30" transform="translate(127.246094 0)"/>
      </g>
     </g>
    </g>
    <g id="ytick_4">
     <g id="line2d_10">
      <g>
       <use xlink:href="#m71c6c0b3bc" x="57.6" y="168.839474" style="stroke: #000000; stroke-width: 0.8"/>
      </g>
     </g>
     <g id="text_11">
      <!-- 150 -->
      <g transform="translate(31.5125 172.638693) scale(0.1 -0.1)">
       <use xlink:href="#DejaVuSans-31"/>
       <use xlink:href="#DejaVuSans-35" transform="translate(63.623047 0)"/>
       <use xlink:href="#DejaVuSans-30" transform="translate(127.246094 0)"/>
      </g>
     </g>
    </g>
    <g id="ytick_5">
     <g id="line2d_11">
      <g>
       <use xlink:href="#m71c6c0b3bc" x="57.6" y="122.591299" style="stroke: #000000; stroke-width: 0.8"/>
      </g>
     </g>
     <g id="text_12">
      <!-- 200 -->
      <g transform="translate(31.5125 126.390518) scale(0.1 -0.1)">
       <use xlink:href="#DejaVuSans-32"/>
       <use xlink:href="#DejaVuSans-30" transform="translate(63.623047 0)"/>
       <use xlink:href="#DejaVuSans-30" transform="translate(127.246094 0)"/>
      </g>
     </g>
    </g>
    <g id="ytick_6">
     <g id="line2d_12">
      <g>
       <use xlink:href="#m71c6c0b3bc" x="57.6" y="76.343124" style="stroke: #000000; stroke-width: 0.8"/>
      </g>
     </g>
     <g id="text_13">
      <!-- 250 -->
      <g transform="translate(31.5125 80.142343) scale(0.1 -0.1)">
       <use xlink:href="#DejaVuSans-32"/>
       <use xlink:href="#DejaVuSans-35" transform="translate(63.623047 0)"/>
       <use xlink:href="#DejaVuSans-30" transform="translate(127.246094 0)"/>
      </g>
     </g>
    </g>
    <g id="text_14">
     <!-- Turn Frequency -->
     <g transform="translate(25.432812 212.549875) rotate(-90) scale(0.1 -0.1)">
      <defs>
       <path id="DejaVuSans-46" d="M 628 4666 
L 3309 4666 
L 3309 4134 
L 1259 4134 
L 1259 2759 
L 3109 2759 
L 3109 2228 
L 1259 2228 
L 1259 0 
L 628 0 
L 628 4666 
z
" transform="scale(0.015625)"/>
       <path id="DejaVuSans-71" d="M 947 1747 
Q 947 1113 1208 752 
Q 1469 391 1925 391 
Q 2381 391 2643 752 
Q 2906 1113 2906 1747 
Q 2906 2381 2643 2742 
Q 2381 3103 1925 3103 
Q 1469 3103 1208 2742 
Q 947 2381 947 1747 
z
M 2906 525 
Q 2725 213 2448 61 
Q 2172 -91 1784 -91 
Q 1150 -91 751 415 
Q 353 922 353 1747 
Q 353 2572 751 3078 
Q 1150 3584 1784 3584 
Q 2172 3584 2448 3432 
Q 2725 3281 2906 2969 
L 2906 3500 
L 3481 3500 
L 3481 -1331 
L 2906 -1331 
L 2906 525 
z
" transform="scale(0.015625)"/>
       <path id="DejaVuSans-63" d="M 3122 3366 
L 3122 2828 
Q 2878 2963 2633 3030 
Q 2388 3097 2138 3097 
Q 1578 3097 1268 2742 
Q 959 2388 959 1747 
Q 959 1106 1268 751 
Q 1578 397 2138 397 
Q 2388 397 2633 464 
Q 2878 531 3122 666 
L 3122 134 
Q 2881 22 2623 -34 
Q 2366 -91 2075 -91 
Q 1284 -91 818 406 
Q 353 903 353 1747 
Q 353 2603 823 3093 
Q 1294 3584 2113 3584 
Q 2378 3584 2631 3529 
Q 2884 3475 3122 3366 
z
" transform="scale(0.015625)"/>
       <path id="DejaVuSans-79" d="M 2059 -325 
Q 1816 -950 1584 -1140 
Q 1353 -1331 966 -1331 
L 506 -1331 
L 506 -850 
L 844 -850 
Q 1081 -850 1212 -737 
Q 1344 -625 1503 -206 
L 1606 56 
L 191 3500 
L 800 3500 
L 1894 763 
L 2988 3500 
L 3597 3500 
L 2059 -325 
z
" transform="scale(0.015625)"/>
      </defs>
      <use xlink:href="#DejaVuSans-54"/>
      <use xlink:href="#DejaVuSans-75" transform="translate(45.958984 0)"/>
      <use xlink:href="#DejaVuSans-72" transform="translate(109.337891 0)"/>
      <use xlink:href="#DejaVuSans-6e" transform="translate(148.701172 0)"/>
      <use xlink:href="#DejaVuSans-20" transform="translate(212.080078 0)"/>
      <use xlink:href="#DejaVuSans-46" transform="translate(243.867188 0)"/>
      <use xlink:href="#DejaVuSans-72" transform="translate(294.136719 0)"/>
      <use xlink:href="#DejaVuSans-65" transform="translate(333 0)"/>
      <use xlink:href="#DejaVuSans-71" transform="translate(394.523438 0)"/>
      <use xlink:href="#DejaVuSans-75" transform="translate(458 0)"/>
      <use xlink:href="#DejaVuSans-65" transform="translate(521.378906 0)"/>
      <use xlink:href="#DejaVuSans-6e" transform="translate(582.902344 0)"/>
      <use xlink:href="#DejaVuSans-63" transform="translate(646.28125 0)"/>
      <use xlink:href="#DejaVuSans-79" transform="translate(701.261719 0)"/>
     </g>
    </g>
   </g>
   <g id="patch_203">
    <path d="M 57.6 307.584 
L 57.6 41.472 
" style="fill: none; stroke: #000000; stroke-width: 0.8; stroke-linejoin: miter; stroke-linecap: square"/>
   </g>
   <g id="patch_204">
    <path d="M 414.72 307.584 
L 414.72 41.472 
" style="fill: none; stroke: #000000; stroke-width: 0.8; stroke-linejoin: miter; stroke-linecap: square"/>
   </g>
   <g id="patch_205">
    <path d="M 57.6 307.584 
L 414.72 307.584 
" style="fill: none; stroke: #000000; stroke-width: 0.8; stroke-linejoin: miter; stroke-linecap: square"/>
   </g>
   <g id="patch_206">
    <path d="M 57.6 41.472 
L 414.72 41.472 
" style="fill: none; stroke: #000000; stroke-width: 0.8; stroke-linejoin: miter; stroke-linecap: square"/>
   </g>
   <g id="text_15">
    <!-- Turn Lengths of Split Conversations -->
    <g transform="translate(130.105312 35.472) scale(0.12 -0.12)">
     <defs>
      <path id="DejaVuSans-4c" d="M 628 4666 
L 1259 4666 
L 1259 531 
L 3531 531 
L 3531 0 
L 628 0 
L 628 4666 
z
" transform="scale(0.015625)"/>
      <path id="DejaVuSans-67" d="M 2906 1791 
Q 2906 2416 2648 2759 
Q 2391 3103 1925 3103 
Q 1463 3103 1205 2759 
Q 947 2416 947 1791 
Q 947 1169 1205 825 
Q 1463 481 1925 481 
Q 2391 481 2648 825 
Q 2906 1169 2906 1791 
z
M 3481 434 
Q 3481 -459 3084 -895 
Q 2688 -1331 1869 -1331 
Q 1566 -1331 1297 -1286 
Q 1028 -1241 775 -1147 
L 775 -588 
Q 1028 -725 1275 -790 
Q 1522 -856 1778 -856 
Q 2344 -856 2625 -561 
Q 2906 -266 2906 331 
L 2906 616 
Q 2728 306 2450 153 
Q 2172 0 1784 0 
Q 1141 0 747 490 
Q 353 981 353 1791 
Q 353 2603 747 3093 
Q 1141 3584 1784 3584 
Q 2172 3584 2450 3431 
Q 2728 3278 2906 2969 
L 2906 3500 
L 3481 3500 
L 3481 434 
z
" transform="scale(0.015625)"/>
      <path id="DejaVuSans-74" d="M 1172 4494 
L 1172 3500 
L 2356 3500 
L 2356 3053 
L 1172 3053 
L 1172 1153 
Q 1172 725 1289 603 
Q 1406 481 1766 481 
L 2356 481 
L 2356 0 
L 1766 0 
Q 1100 0 847 248 
Q 594 497 594 1153 
L 594 3053 
L 172 3053 
L 172 3500 
L 594 3500 
L 594 4494 
L 1172 4494 
z
" transform="scale(0.015625)"/>
      <path id="DejaVuSans-68" d="M 3513 2113 
L 3513 0 
L 2938 0 
L 2938 2094 
Q 2938 2591 2744 2837 
Q 2550 3084 2163 3084 
Q 1697 3084 1428 2787 
Q 1159 2491 1159 1978 
L 1159 0 
L 581 0 
L 581 4863 
L 1159 4863 
L 1159 2956 
Q 1366 3272 1645 3428 
Q 1925 3584 2291 3584 
Q 2894 3584 3203 3211 
Q 3513 2838 3513 2113 
z
" transform="scale(0.015625)"/>
      <path id="DejaVuSans-53" d="M 3425 4513 
L 3425 3897 
Q 3066 4069 2747 4153 
Q 2428 4238 2131 4238 
Q 1616 4238 1336 4038 
Q 1056 3838 1056 3469 
Q 1056 3159 1242 3001 
Q 1428 2844 1947 2747 
L 2328 2669 
Q 3034 2534 3370 2195 
Q 3706 1856 3706 1288 
Q 3706 609 3251 259 
Q 2797 -91 1919 -91 
Q 1588 -91 1214 -16 
Q 841 59 441 206 
L 441 856 
Q 825 641 1194 531 
Q 1563 422 1919 422 
Q 2459 422 2753 634 
Q 3047 847 3047 1241 
Q 3047 1584 2836 1778 
Q 2625 1972 2144 2069 
L 1759 2144 
Q 1053 2284 737 2584 
Q 422 2884 422 3419 
Q 422 4038 858 4394 
Q 1294 4750 2059 4750 
Q 2388 4750 2728 4690 
Q 3069 4631 3425 4513 
z
" transform="scale(0.015625)"/>
      <path id="DejaVuSans-6c" d="M 603 4863 
L 1178 4863 
L 1178 0 
L 603 0 
L 603 4863 
z
" transform="scale(0.015625)"/>
      <path id="DejaVuSans-69" d="M 603 3500 
L 1178 3500 
L 1178 0 
L 603 0 
L 603 3500 
z
M 603 4863 
L 1178 4863 
L 1178 4134 
L 603 4134 
L 603 4863 
z
" transform="scale(0.015625)"/>
      <path id="DejaVuSans-43" d="M 4122 4306 
L 4122 3641 
Q 3803 3938 3442 4084 
Q 3081 4231 2675 4231 
Q 1875 4231 1450 3742 
Q 1025 3253 1025 2328 
Q 1025 1406 1450 917 
Q 1875 428 2675 428 
Q 3081 428 3442 575 
Q 3803 722 4122 1019 
L 4122 359 
Q 3791 134 3420 21 
Q 3050 -91 2638 -91 
Q 1578 -91 968 557 
Q 359 1206 359 2328 
Q 359 3453 968 4101 
Q 1578 4750 2638 4750 
Q 3056 4750 3426 4639 
Q 3797 4528 4122 4306 
z
" transform="scale(0.015625)"/>
      <path id="DejaVuSans-76" d="M 191 3500 
L 800 3500 
L 1894 563 
L 2988 3500 
L 3597 3500 
L 2284 0 
L 1503 0 
L 191 3500 
z
" transform="scale(0.015625)"/>
      <path id="DejaVuSans-61" d="M 2194 1759 
Q 1497 1759 1228 1600 
Q 959 1441 959 1056 
Q 959 750 1161 570 
Q 1363 391 1709 391 
Q 2188 391 2477 730 
Q 2766 1069 2766 1631 
L 2766 1759 
L 2194 1759 
z
M 3341 1997 
L 3341 0 
L 2766 0 
L 2766 531 
Q 2569 213 2275 61 
Q 1981 -91 1556 -91 
Q 1019 -91 701 211 
Q 384 513 384 1019 
Q 384 1609 779 1909 
Q 1175 2209 1959 2209 
L 2766 2209 
L 2766 2266 
Q 2766 2663 2505 2880 
Q 2244 3097 1772 3097 
Q 1472 3097 1187 3025 
Q 903 2953 641 2809 
L 641 3341 
Q 956 3463 1253 3523 
Q 1550 3584 1831 3584 
Q 2591 3584 2966 3190 
Q 3341 2797 3341 1997 
z
" transform="scale(0.015625)"/>
     </defs>
     <use xlink:href="#DejaVuSans-54"/>
     <use xlink:href="#DejaVuSans-75" transform="translate(45.958984 0)"/>
     <use xlink:href="#DejaVuSans-72" transform="translate(109.337891 0)"/>
     <use xlink:href="#DejaVuSans-6e" transform="translate(148.701172 0)"/>
     <use xlink:href="#DejaVuSans-20" transform="translate(212.080078 0)"/>
     <use xlink:href="#DejaVuSans-4c" transform="translate(243.867188 0)"/>
     <use xlink:href="#DejaVuSans-65" transform="translate(297.830078 0)"/>
     <use xlink:href="#DejaVuSans-6e" transform="translate(359.353516 0)"/>
     <use xlink:href="#DejaVuSans-67" transform="translate(422.732422 0)"/>
     <use xlink:href="#DejaVuSans-74" transform="translate(486.208984 0)"/>
     <use xlink:href="#DejaVuSans-68" transform="translate(525.417969 0)"/>
     <use xlink:href="#DejaVuSans-73" transform="translate(588.796875 0)"/>
     <use xlink:href="#DejaVuSans-20" transform="translate(640.896484 0)"/>
     <use xlink:href="#DejaVuSans-6f" transform="translate(672.683594 0)"/>
     <use xlink:href="#DejaVuSans-66" transform="translate(733.865234 0)"/>
     <use xlink:href="#DejaVuSans-20" transform="translate(769.070312 0)"/>
     <use xlink:href="#DejaVuSans-53" transform="translate(800.857422 0)"/>
     <use xlink:href="#DejaVuSans-70" transform="translate(864.333984 0)"/>
     <use xlink:href="#DejaVuSans-6c" transform="translate(927.810547 0)"/>
     <use xlink:href="#DejaVuSans-69" transform="translate(955.59375 0)"/>
     <use xlink:href="#DejaVuSans-74" transform="translate(983.376953 0)"/>
     <use xlink:href="#DejaVuSans-20" transform="translate(1022.585938 0)"/>
     <use xlink:href="#DejaVuSans-43" transform="translate(1054.373047 0)"/>
     <use xlink:href="#DejaVuSans-6f" transform="translate(1124.197266 0)"/>
     <use xlink:href="#DejaVuSans-6e" transform="translate(1185.378906 0)"/>
     <use xlink:href="#DejaVuSans-76" transform="translate(1248.757812 0)"/>
     <use xlink:href="#DejaVuSans-65" transform="translate(1307.9375 0)"/>
     <use xlink:href="#DejaVuSans-72" transform="translate(1369.460938 0)"/>
     <use xlink:href="#DejaVuSans-73" transform="translate(1410.574219 0)"/>
     <use xlink:href="#DejaVuSans-61" transform="translate(1462.673828 0)"/>
     <use xlink:href="#DejaVuSans-74" transform="translate(1523.953125 0)"/>
     <use xlink:href="#DejaVuSans-69" transform="translate(1563.162109 0)"/>
     <use xlink:href="#DejaVuSans-6f" transform="translate(1590.945312 0)"/>
     <use xlink:href="#DejaVuSans-6e" transform="translate(1652.126953 0)"/>
     <use xlink:href="#DejaVuSans-73" transform="translate(1715.505859 0)"/>
    </g>
   </g>
   <g id="legend_1">
    <g id="patch_207">
     <path d="M 339.7575 78.82825 
L 407.72 78.82825 
Q 409.72 78.82825 409.72 76.82825 
L 409.72 48.472 
Q 409.72 46.472 407.72 46.472 
L 339.7575 46.472 
Q 337.7575 46.472 337.7575 48.472 
L 337.7575 76.82825 
Q 337.7575 78.82825 339.7575 78.82825 
z
" style="fill: #ffffff; opacity: 0.8; stroke: #cccccc; stroke-linejoin: miter"/>
    </g>
    <g id="patch_208">
     <path d="M 341.7575 58.070437 
L 361.7575 58.070437 
L 361.7575 51.070437 
L 341.7575 51.070437 
z
" style="fill: #00bfbf; opacity: 0.7"/>
    </g>
    <g id="text_16">
     <!-- Agent7 -->
     <g transform="translate(369.7575 58.070437) scale(0.1 -0.1)">
      <defs>
       <path id="DejaVuSans-41" d="M 2188 4044 
L 1331 1722 
L 3047 1722 
L 2188 4044 
z
M 1831 4666 
L 2547 4666 
L 4325 0 
L 3669 0 
L 3244 1197 
L 1141 1197 
L 716 0 
L 50 0 
L 1831 4666 
z
" transform="scale(0.015625)"/>
       <path id="DejaVuSans-37" d="M 525 4666 
L 3525 4666 
L 3525 4397 
L 1831 0 
L 1172 0 
L 2766 4134 
L 525 4134 
L 525 4666 
z
" transform="scale(0.015625)"/>
      </defs>
      <use xlink:href="#DejaVuSans-41"/>
      <use xlink:href="#DejaVuSans-67" transform="translate(68.408203 0)"/>
      <use xlink:href="#DejaVuSans-65" transform="translate(131.884766 0)"/>
      <use xlink:href="#DejaVuSans-6e" transform="translate(193.408203 0)"/>
      <use xlink:href="#DejaVuSans-74" transform="translate(256.787109 0)"/>
      <use xlink:href="#DejaVuSans-37" transform="translate(295.996094 0)"/>
     </g>
    </g>
    <g id="patch_209">
     <path d="M 341.7575 72.748562 
L 361.7575 72.748562 
L 361.7575 65.748562 
L 341.7575 65.748562 
z
" style="fill: #ff4500; opacity: 0.7"/>
    </g>
    <g id="text_17">
     <!-- Agent8 -->
     <g transform="translate(369.7575 72.748562) scale(0.1 -0.1)">
      <defs>
       <path id="DejaVuSans-38" d="M 2034 2216 
Q 1584 2216 1326 1975 
Q 1069 1734 1069 1313 
Q 1069 891 1326 650 
Q 1584 409 2034 409 
Q 2484 409 2743 651 
Q 3003 894 3003 1313 
Q 3003 1734 2745 1975 
Q 2488 2216 2034 2216 
z
M 1403 2484 
Q 997 2584 770 2862 
Q 544 3141 544 3541 
Q 544 4100 942 4425 
Q 1341 4750 2034 4750 
Q 2731 4750 3128 4425 
Q 3525 4100 3525 3541 
Q 3525 3141 3298 2862 
Q 3072 2584 2669 2484 
Q 3125 2378 3379 2068 
Q 3634 1759 3634 1313 
Q 3634 634 3220 271 
Q 2806 -91 2034 -91 
Q 1263 -91 848 271 
Q 434 634 434 1313 
Q 434 1759 690 2068 
Q 947 2378 1403 2484 
z
M 1172 3481 
Q 1172 3119 1398 2916 
Q 1625 2713 2034 2713 
Q 2441 2713 2670 2916 
Q 2900 3119 2900 3481 
Q 2900 3844 2670 4047 
Q 2441 4250 2034 4250 
Q 1625 4250 1398 4047 
Q 1172 3844 1172 3481 
z
" transform="scale(0.015625)"/>
      </defs>
      <use xlink:href="#DejaVuSans-41"/>
      <use xlink:href="#DejaVuSans-67" transform="translate(68.408203 0)"/>
      <use xlink:href="#DejaVuSans-65" transform="translate(131.884766 0)"/>
      <use xlink:href="#DejaVuSans-6e" transform="translate(193.408203 0)"/>
      <use xlink:href="#DejaVuSans-74" transform="translate(256.787109 0)"/>
      <use xlink:href="#DejaVuSans-38" transform="translate(295.996094 0)"/>
     </g>
    </g>
   </g>
  </g>
 </g>
 <defs>
  <clipPath id="pd1d05fd0f5">
   <rect x="57.6" y="41.472" width="357.12" height="266.112"/>
  </clipPath>
 </defs>
</svg>
