<?xml version="1.0" encoding="utf-8" standalone="no"?>
<!DOCTYPE svg PUBLIC "-//W3C//DTD SVG 1.1//EN"
  "http://www.w3.org/Graphics/SVG/1.1/DTD/svg11.dtd">
<svg xmlns:xlink="http://www.w3.org/1999/xlink" width="720pt" height="576pt" viewBox="0 0 720 576" xmlns="http://www.w3.org/2000/svg" version="1.1">
 <metadata>
  <rdf:RDF xmlns:dc="http://purl.org/dc/elements/1.1/" xmlns:cc="http://creativecommons.org/ns#" xmlns:rdf="http://www.w3.org/1999/02/22-rdf-syntax-ns#">
   <cc:Work>
    <dc:type rdf:resource="http://purl.org/dc/dcmitype/StillImage"/>
    <dc:date>2024-12-18T17:18:26.207519</dc:date>
    <dc:format>image/svg+xml</dc:format>
    <dc:creator>
     <cc:Agent>
      <dc:title>Matplotlib v3.9.4, https://matplotlib.org/</dc:title>
     </cc:Agent>
    </dc:creator>
   </cc:Work>
  </rdf:RDF>
 </metadata>
 <defs>
  <style type="text/css">*{stroke-linejoin: round; stroke-linecap: butt}</style>
 </defs>
 <g id="figure_1">
  <g id="patch_1">
   <path d="M 0 576 
L 720 576 
L 720 0 
L 0 0 
z
" style="fill: #ffffff"/>
  </g>
  <g id="axes_1">
   <g id="patch_2">
    <path d="M 90 512.64 
L 648 512.64 
L 648 69.12 
L 90 69.12 
z
" style="fill: #ffffff"/>
   </g>
   <g id="patch_3">
    <path d="M 115.363636 512.64 
L 149.755008 512.64 
L 149.755008 95.716065 
L 115.363636 95.716065 
z
" clip-path="url(#p32b366c40b)" style="fill: #66c282; opacity: 0.8"/>
   </g>
   <g id="patch_4">
    <path d="M 158.352851 512.64 
L 192.744222 512.64 
L 192.744222 170.215273 
L 158.352851 170.215273 
z
" clip-path="url(#p32b366c40b)" style="fill: #66c282; opacity: 0.8"/>
   </g>
   <g id="patch_5">
    <path d="M 201.342065 512.64 
L 235.733436 512.64 
L 235.733436 181.496367 
L 201.342065 181.496367 
z
" clip-path="url(#p32b366c40b)" style="fill: #66c282; opacity: 0.8"/>
   </g>
   <g id="patch_6">
    <path d="M 244.331279 512.64 
L 278.72265 512.64 
L 278.72265 190.431189 
L 244.331279 190.431189 
z
" clip-path="url(#p32b366c40b)" style="fill: #66c282; opacity: 0.8"/>
   </g>
   <g id="patch_7">
    <path d="M 287.320493 512.64 
L 321.711864 512.64 
L 321.711864 210.930677 
L 287.320493 210.930677 
z
" clip-path="url(#p32b366c40b)" style="fill: #66c282; opacity: 0.8"/>
   </g>
   <g id="patch_8">
    <path d="M 330.309707 512.64 
L 364.701079 512.64 
L 364.701079 209.542198 
L 330.309707 209.542198 
z
" clip-path="url(#p32b366c40b)" style="fill: #66c282; opacity: 0.8"/>
   </g>
   <g id="patch_9">
    <path d="M 373.298921 512.64 
L 407.690293 512.64 
L 407.690293 216.429653 
L 373.298921 216.429653 
z
" clip-path="url(#p32b366c40b)" style="fill: #66c282; opacity: 0.8"/>
   </g>
   <g id="patch_10">
    <path d="M 416.288136 512.64 
L 450.679507 512.64 
L 450.679507 233.560962 
L 416.288136 233.560962 
z
" clip-path="url(#p32b366c40b)" style="fill: #66c282; opacity: 0.8"/>
   </g>
   <g id="patch_11">
    <path d="M 459.27735 512.64 
L 493.668721 512.64 
L 493.668721 241.493412 
L 459.27735 241.493412 
z
" clip-path="url(#p32b366c40b)" style="fill: #66c282; opacity: 0.8"/>
   </g>
   <g id="patch_12">
    <path d="M 502.266564 512.64 
L 536.657935 512.64 
L 536.657935 246.966597 
L 502.266564 246.966597 
z
" clip-path="url(#p32b366c40b)" style="fill: #66c282; opacity: 0.8"/>
   </g>
   <g id="patch_13">
    <path d="M 545.255778 512.64 
L 579.647149 512.64 
L 579.647149 252.98484 
L 545.255778 252.98484 
z
" clip-path="url(#p32b366c40b)" style="fill: #66c282; opacity: 0.8"/>
   </g>
   <g id="patch_14">
    <path d="M 588.244992 512.64 
L 622.636364 512.64 
L 622.636364 257.665276 
L 588.244992 257.665276 
z
" clip-path="url(#p32b366c40b)" style="fill: #66c282; opacity: 0.8"/>
   </g>
   <g id="matplotlib.axis_1">
    <g id="xtick_1">
     <g id="line2d_1">
      <defs>
       <path id="m938fd4e5f5" d="M 0 0 
L 0 3.5 
" style="stroke: #000000; stroke-width: 0.8"/>
      </defs>
      <g>
       <use xlink:href="#m938fd4e5f5" x="132.559322" y="512.64" style="stroke: #000000; stroke-width: 0.8"/>
      </g>
     </g>
     <g id="text_1">
      <!-- BaseJSD -->
      <g transform="translate(119.891062 554.251772) rotate(-45) scale(0.1 -0.1)">
       <defs>
        <path id="DejaVuSans-42" d="M 1259 2228 
L 1259 519 
L 2272 519 
Q 2781 519 3026 730 
Q 3272 941 3272 1375 
Q 3272 1813 3026 2020 
Q 2781 2228 2272 2228 
L 1259 2228 
z
M 1259 4147 
L 1259 2741 
L 2194 2741 
Q 2656 2741 2882 2914 
Q 3109 3088 3109 3444 
Q 3109 3797 2882 3972 
Q 2656 4147 2194 4147 
L 1259 4147 
z
M 628 4666 
L 2241 4666 
Q 2963 4666 3353 4366 
Q 3744 4066 3744 3513 
Q 3744 3084 3544 2831 
Q 3344 2578 2956 2516 
Q 3422 2416 3680 2098 
Q 3938 1781 3938 1306 
Q 3938 681 3513 340 
Q 3088 0 2303 0 
L 628 0 
L 628 4666 
z
" transform="scale(0.015625)"/>
        <path id="DejaVuSans-61" d="M 2194 1759 
Q 1497 1759 1228 1600 
Q 959 1441 959 1056 
Q 959 750 1161 570 
Q 1363 391 1709 391 
Q 2188 391 2477 730 
Q 2766 1069 2766 1631 
L 2766 1759 
L 2194 1759 
z
M 3341 1997 
L 3341 0 
L 2766 0 
L 2766 531 
Q 2569 213 2275 61 
Q 1981 -91 1556 -91 
Q 1019 -91 701 211 
Q 384 513 384 1019 
Q 384 1609 779 1909 
Q 1175 2209 1959 2209 
L 2766 2209 
L 2766 2266 
Q 2766 2663 2505 2880 
Q 2244 3097 1772 3097 
Q 1472 3097 1187 3025 
Q 903 2953 641 2809 
L 641 3341 
Q 956 3463 1253 3523 
Q 1550 3584 1831 3584 
Q 2591 3584 2966 3190 
Q 3341 2797 3341 1997 
z
" transform="scale(0.015625)"/>
        <path id="DejaVuSans-73" d="M 2834 3397 
L 2834 2853 
Q 2591 2978 2328 3040 
Q 2066 3103 1784 3103 
Q 1356 3103 1142 2972 
Q 928 2841 928 2578 
Q 928 2378 1081 2264 
Q 1234 2150 1697 2047 
L 1894 2003 
Q 2506 1872 2764 1633 
Q 3022 1394 3022 966 
Q 3022 478 2636 193 
Q 2250 -91 1575 -91 
Q 1294 -91 989 -36 
Q 684 19 347 128 
L 347 722 
Q 666 556 975 473 
Q 1284 391 1588 391 
Q 1994 391 2212 530 
Q 2431 669 2431 922 
Q 2431 1156 2273 1281 
Q 2116 1406 1581 1522 
L 1381 1569 
Q 847 1681 609 1914 
Q 372 2147 372 2553 
Q 372 3047 722 3315 
Q 1072 3584 1716 3584 
Q 2034 3584 2315 3537 
Q 2597 3491 2834 3397 
z
" transform="scale(0.015625)"/>
        <path id="DejaVuSans-65" d="M 3597 1894 
L 3597 1613 
L 953 1613 
Q 991 1019 1311 708 
Q 1631 397 2203 397 
Q 2534 397 2845 478 
Q 3156 559 3463 722 
L 3463 178 
Q 3153 47 2828 -22 
Q 2503 -91 2169 -91 
Q 1331 -91 842 396 
Q 353 884 353 1716 
Q 353 2575 817 3079 
Q 1281 3584 2069 3584 
Q 2775 3584 3186 3129 
Q 3597 2675 3597 1894 
z
M 3022 2063 
Q 3016 2534 2758 2815 
Q 2500 3097 2075 3097 
Q 1594 3097 1305 2825 
Q 1016 2553 972 2059 
L 3022 2063 
z
" transform="scale(0.015625)"/>
        <path id="DejaVuSans-4a" d="M 628 4666 
L 1259 4666 
L 1259 325 
Q 1259 -519 939 -900 
Q 619 -1281 -91 -1281 
L -331 -1281 
L -331 -750 
L -134 -750 
Q 284 -750 456 -515 
Q 628 -281 628 325 
L 628 4666 
z
" transform="scale(0.015625)"/>
        <path id="DejaVuSans-53" d="M 3425 4513 
L 3425 3897 
Q 3066 4069 2747 4153 
Q 2428 4238 2131 4238 
Q 1616 4238 1336 4038 
Q 1056 3838 1056 3469 
Q 1056 3159 1242 3001 
Q 1428 2844 1947 2747 
L 2328 2669 
Q 3034 2534 3370 2195 
Q 3706 1856 3706 1288 
Q 3706 609 3251 259 
Q 2797 -91 1919 -91 
Q 1588 -91 1214 -16 
Q 841 59 441 206 
L 441 856 
Q 825 641 1194 531 
Q 1563 422 1919 422 
Q 2459 422 2753 634 
Q 3047 847 3047 1241 
Q 3047 1584 2836 1778 
Q 2625 1972 2144 2069 
L 1759 2144 
Q 1053 2284 737 2584 
Q 422 2884 422 3419 
Q 422 4038 858 4394 
Q 1294 4750 2059 4750 
Q 2388 4750 2728 4690 
Q 3069 4631 3425 4513 
z
" transform="scale(0.015625)"/>
        <path id="DejaVuSans-44" d="M 1259 4147 
L 1259 519 
L 2022 519 
Q 2988 519 3436 956 
Q 3884 1394 3884 2338 
Q 3884 3275 3436 3711 
Q 2988 4147 2022 4147 
L 1259 4147 
z
M 628 4666 
L 1925 4666 
Q 3281 4666 3915 4102 
Q 4550 3538 4550 2338 
Q 4550 1131 3912 565 
Q 3275 0 1925 0 
L 628 0 
L 628 4666 
z
" transform="scale(0.015625)"/>
       </defs>
       <use xlink:href="#DejaVuSans-42"/>
       <use xlink:href="#DejaVuSans-61" x="68.603516"/>
       <use xlink:href="#DejaVuSans-73" x="129.882812"/>
       <use xlink:href="#DejaVuSans-65" x="181.982422"/>
       <use xlink:href="#DejaVuSans-4a" x="243.505859"/>
       <use xlink:href="#DejaVuSans-53" x="272.998047"/>
       <use xlink:href="#DejaVuSans-44" x="336.474609"/>
      </g>
     </g>
    </g>
    <g id="xtick_2">
     <g id="line2d_2">
      <g>
       <use xlink:href="#m938fd4e5f5" x="175.548536" y="512.64" style="stroke: #000000; stroke-width: 0.8"/>
      </g>
     </g>
     <g id="text_2">
      <!-- Split1 -->
      <g transform="translate(167.410732 545.190862) rotate(-45) scale(0.1 -0.1)">
       <defs>
        <path id="DejaVuSans-70" d="M 1159 525 
L 1159 -1331 
L 581 -1331 
L 581 3500 
L 1159 3500 
L 1159 2969 
Q 1341 3281 1617 3432 
Q 1894 3584 2278 3584 
Q 2916 3584 3314 3078 
Q 3713 2572 3713 1747 
Q 3713 922 3314 415 
Q 2916 -91 2278 -91 
Q 1894 -91 1617 61 
Q 1341 213 1159 525 
z
M 3116 1747 
Q 3116 2381 2855 2742 
Q 2594 3103 2138 3103 
Q 1681 3103 1420 2742 
Q 1159 2381 1159 1747 
Q 1159 1113 1420 752 
Q 1681 391 2138 391 
Q 2594 391 2855 752 
Q 3116 1113 3116 1747 
z
" transform="scale(0.015625)"/>
        <path id="DejaVuSans-6c" d="M 603 4863 
L 1178 4863 
L 1178 0 
L 603 0 
L 603 4863 
z
" transform="scale(0.015625)"/>
        <path id="DejaVuSans-69" d="M 603 3500 
L 1178 3500 
L 1178 0 
L 603 0 
L 603 3500 
z
M 603 4863 
L 1178 4863 
L 1178 4134 
L 603 4134 
L 603 4863 
z
" transform="scale(0.015625)"/>
        <path id="DejaVuSans-74" d="M 1172 4494 
L 1172 3500 
L 2356 3500 
L 2356 3053 
L 1172 3053 
L 1172 1153 
Q 1172 725 1289 603 
Q 1406 481 1766 481 
L 2356 481 
L 2356 0 
L 1766 0 
Q 1100 0 847 248 
Q 594 497 594 1153 
L 594 3053 
L 172 3053 
L 172 3500 
L 594 3500 
L 594 4494 
L 1172 4494 
z
" transform="scale(0.015625)"/>
        <path id="DejaVuSans-31" d="M 794 531 
L 1825 531 
L 1825 4091 
L 703 3866 
L 703 4441 
L 1819 4666 
L 2450 4666 
L 2450 531 
L 3481 531 
L 3481 0 
L 794 0 
L 794 531 
z
" transform="scale(0.015625)"/>
       </defs>
       <use xlink:href="#DejaVuSans-53"/>
       <use xlink:href="#DejaVuSans-70" x="63.476562"/>
       <use xlink:href="#DejaVuSans-6c" x="126.953125"/>
       <use xlink:href="#DejaVuSans-69" x="154.736328"/>
       <use xlink:href="#DejaVuSans-74" x="182.519531"/>
       <use xlink:href="#DejaVuSans-31" x="221.728516"/>
      </g>
     </g>
    </g>
    <g id="xtick_3">
     <g id="line2d_3">
      <g>
       <use xlink:href="#m938fd4e5f5" x="218.53775" y="512.64" style="stroke: #000000; stroke-width: 0.8"/>
      </g>
     </g>
     <g id="text_3">
      <!-- Split2 -->
      <g transform="translate(210.399946 545.190862) rotate(-45) scale(0.1 -0.1)">
       <defs>
        <path id="DejaVuSans-32" d="M 1228 531 
L 3431 531 
L 3431 0 
L 469 0 
L 469 531 
Q 828 903 1448 1529 
Q 2069 2156 2228 2338 
Q 2531 2678 2651 2914 
Q 2772 3150 2772 3378 
Q 2772 3750 2511 3984 
Q 2250 4219 1831 4219 
Q 1534 4219 1204 4116 
Q 875 4013 500 3803 
L 500 4441 
Q 881 4594 1212 4672 
Q 1544 4750 1819 4750 
Q 2544 4750 2975 4387 
Q 3406 4025 3406 3419 
Q 3406 3131 3298 2873 
Q 3191 2616 2906 2266 
Q 2828 2175 2409 1742 
Q 1991 1309 1228 531 
z
" transform="scale(0.015625)"/>
       </defs>
       <use xlink:href="#DejaVuSans-53"/>
       <use xlink:href="#DejaVuSans-70" x="63.476562"/>
       <use xlink:href="#DejaVuSans-6c" x="126.953125"/>
       <use xlink:href="#DejaVuSans-69" x="154.736328"/>
       <use xlink:href="#DejaVuSans-74" x="182.519531"/>
       <use xlink:href="#DejaVuSans-32" x="221.728516"/>
      </g>
     </g>
    </g>
    <g id="xtick_4">
     <g id="line2d_4">
      <g>
       <use xlink:href="#m938fd4e5f5" x="261.526965" y="512.64" style="stroke: #000000; stroke-width: 0.8"/>
      </g>
     </g>
     <g id="text_4">
      <!-- Split3 -->
      <g transform="translate(253.38916 545.190862) rotate(-45) scale(0.1 -0.1)">
       <defs>
        <path id="DejaVuSans-33" d="M 2597 2516 
Q 3050 2419 3304 2112 
Q 3559 1806 3559 1356 
Q 3559 666 3084 287 
Q 2609 -91 1734 -91 
Q 1441 -91 1130 -33 
Q 819 25 488 141 
L 488 750 
Q 750 597 1062 519 
Q 1375 441 1716 441 
Q 2309 441 2620 675 
Q 2931 909 2931 1356 
Q 2931 1769 2642 2001 
Q 2353 2234 1838 2234 
L 1294 2234 
L 1294 2753 
L 1863 2753 
Q 2328 2753 2575 2939 
Q 2822 3125 2822 3475 
Q 2822 3834 2567 4026 
Q 2313 4219 1838 4219 
Q 1578 4219 1281 4162 
Q 984 4106 628 3988 
L 628 4550 
Q 988 4650 1302 4700 
Q 1616 4750 1894 4750 
Q 2613 4750 3031 4423 
Q 3450 4097 3450 3541 
Q 3450 3153 3228 2886 
Q 3006 2619 2597 2516 
z
" transform="scale(0.015625)"/>
       </defs>
       <use xlink:href="#DejaVuSans-53"/>
       <use xlink:href="#DejaVuSans-70" x="63.476562"/>
       <use xlink:href="#DejaVuSans-6c" x="126.953125"/>
       <use xlink:href="#DejaVuSans-69" x="154.736328"/>
       <use xlink:href="#DejaVuSans-74" x="182.519531"/>
       <use xlink:href="#DejaVuSans-33" x="221.728516"/>
      </g>
     </g>
    </g>
    <g id="xtick_5">
     <g id="line2d_5">
      <g>
       <use xlink:href="#m938fd4e5f5" x="304.516179" y="512.64" style="stroke: #000000; stroke-width: 0.8"/>
      </g>
     </g>
     <g id="text_5">
      <!-- Split4 -->
      <g transform="translate(296.378374 545.190862) rotate(-45) scale(0.1 -0.1)">
       <defs>
        <path id="DejaVuSans-34" d="M 2419 4116 
L 825 1625 
L 2419 1625 
L 2419 4116 
z
M 2253 4666 
L 3047 4666 
L 3047 1625 
L 3713 1625 
L 3713 1100 
L 3047 1100 
L 3047 0 
L 2419 0 
L 2419 1100 
L 313 1100 
L 313 1709 
L 2253 4666 
z
" transform="scale(0.015625)"/>
       </defs>
       <use xlink:href="#DejaVuSans-53"/>
       <use xlink:href="#DejaVuSans-70" x="63.476562"/>
       <use xlink:href="#DejaVuSans-6c" x="126.953125"/>
       <use xlink:href="#DejaVuSans-69" x="154.736328"/>
       <use xlink:href="#DejaVuSans-74" x="182.519531"/>
       <use xlink:href="#DejaVuSans-34" x="221.728516"/>
      </g>
     </g>
    </g>
    <g id="xtick_6">
     <g id="line2d_6">
      <g>
       <use xlink:href="#m938fd4e5f5" x="347.505393" y="512.64" style="stroke: #000000; stroke-width: 0.8"/>
      </g>
     </g>
     <g id="text_6">
      <!-- Split5 -->
      <g transform="translate(339.367588 545.190862) rotate(-45) scale(0.1 -0.1)">
       <defs>
        <path id="DejaVuSans-35" d="M 691 4666 
L 3169 4666 
L 3169 4134 
L 1269 4134 
L 1269 2991 
Q 1406 3038 1543 3061 
Q 1681 3084 1819 3084 
Q 2600 3084 3056 2656 
Q 3513 2228 3513 1497 
Q 3513 744 3044 326 
Q 2575 -91 1722 -91 
Q 1428 -91 1123 -41 
Q 819 9 494 109 
L 494 744 
Q 775 591 1075 516 
Q 1375 441 1709 441 
Q 2250 441 2565 725 
Q 2881 1009 2881 1497 
Q 2881 1984 2565 2268 
Q 2250 2553 1709 2553 
Q 1456 2553 1204 2497 
Q 953 2441 691 2322 
L 691 4666 
z
" transform="scale(0.015625)"/>
       </defs>
       <use xlink:href="#DejaVuSans-53"/>
       <use xlink:href="#DejaVuSans-70" x="63.476562"/>
       <use xlink:href="#DejaVuSans-6c" x="126.953125"/>
       <use xlink:href="#DejaVuSans-69" x="154.736328"/>
       <use xlink:href="#DejaVuSans-74" x="182.519531"/>
       <use xlink:href="#DejaVuSans-35" x="221.728516"/>
      </g>
     </g>
    </g>
    <g id="xtick_7">
     <g id="line2d_7">
      <g>
       <use xlink:href="#m938fd4e5f5" x="390.494607" y="512.64" style="stroke: #000000; stroke-width: 0.8"/>
      </g>
     </g>
     <g id="text_7">
      <!-- Split6 -->
      <g transform="translate(382.356802 545.190862) rotate(-45) scale(0.1 -0.1)">
       <defs>
        <path id="DejaVuSans-36" d="M 2113 2584 
Q 1688 2584 1439 2293 
Q 1191 2003 1191 1497 
Q 1191 994 1439 701 
Q 1688 409 2113 409 
Q 2538 409 2786 701 
Q 3034 994 3034 1497 
Q 3034 2003 2786 2293 
Q 2538 2584 2113 2584 
z
M 3366 4563 
L 3366 3988 
Q 3128 4100 2886 4159 
Q 2644 4219 2406 4219 
Q 1781 4219 1451 3797 
Q 1122 3375 1075 2522 
Q 1259 2794 1537 2939 
Q 1816 3084 2150 3084 
Q 2853 3084 3261 2657 
Q 3669 2231 3669 1497 
Q 3669 778 3244 343 
Q 2819 -91 2113 -91 
Q 1303 -91 875 529 
Q 447 1150 447 2328 
Q 447 3434 972 4092 
Q 1497 4750 2381 4750 
Q 2619 4750 2861 4703 
Q 3103 4656 3366 4563 
z
" transform="scale(0.015625)"/>
       </defs>
       <use xlink:href="#DejaVuSans-53"/>
       <use xlink:href="#DejaVuSans-70" x="63.476562"/>
       <use xlink:href="#DejaVuSans-6c" x="126.953125"/>
       <use xlink:href="#DejaVuSans-69" x="154.736328"/>
       <use xlink:href="#DejaVuSans-74" x="182.519531"/>
       <use xlink:href="#DejaVuSans-36" x="221.728516"/>
      </g>
     </g>
    </g>
    <g id="xtick_8">
     <g id="line2d_8">
      <g>
       <use xlink:href="#m938fd4e5f5" x="433.483821" y="512.64" style="stroke: #000000; stroke-width: 0.8"/>
      </g>
     </g>
     <g id="text_8">
      <!-- Split7 -->
      <g transform="translate(425.346017 545.190862) rotate(-45) scale(0.1 -0.1)">
       <defs>
        <path id="DejaVuSans-37" d="M 525 4666 
L 3525 4666 
L 3525 4397 
L 1831 0 
L 1172 0 
L 2766 4134 
L 525 4134 
L 525 4666 
z
" transform="scale(0.015625)"/>
       </defs>
       <use xlink:href="#DejaVuSans-53"/>
       <use xlink:href="#DejaVuSans-70" x="63.476562"/>
       <use xlink:href="#DejaVuSans-6c" x="126.953125"/>
       <use xlink:href="#DejaVuSans-69" x="154.736328"/>
       <use xlink:href="#DejaVuSans-74" x="182.519531"/>
       <use xlink:href="#DejaVuSans-37" x="221.728516"/>
      </g>
     </g>
    </g>
    <g id="xtick_9">
     <g id="line2d_9">
      <g>
       <use xlink:href="#m938fd4e5f5" x="476.473035" y="512.64" style="stroke: #000000; stroke-width: 0.8"/>
      </g>
     </g>
     <g id="text_9">
      <!-- Split8 -->
      <g transform="translate(468.335231 545.190862) rotate(-45) scale(0.1 -0.1)">
       <defs>
        <path id="DejaVuSans-38" d="M 2034 2216 
Q 1584 2216 1326 1975 
Q 1069 1734 1069 1313 
Q 1069 891 1326 650 
Q 1584 409 2034 409 
Q 2484 409 2743 651 
Q 3003 894 3003 1313 
Q 3003 1734 2745 1975 
Q 2488 2216 2034 2216 
z
M 1403 2484 
Q 997 2584 770 2862 
Q 544 3141 544 3541 
Q 544 4100 942 4425 
Q 1341 4750 2034 4750 
Q 2731 4750 3128 4425 
Q 3525 4100 3525 3541 
Q 3525 3141 3298 2862 
Q 3072 2584 2669 2484 
Q 3125 2378 3379 2068 
Q 3634 1759 3634 1313 
Q 3634 634 3220 271 
Q 2806 -91 2034 -91 
Q 1263 -91 848 271 
Q 434 634 434 1313 
Q 434 1759 690 2068 
Q 947 2378 1403 2484 
z
M 1172 3481 
Q 1172 3119 1398 2916 
Q 1625 2713 2034 2713 
Q 2441 2713 2670 2916 
Q 2900 3119 2900 3481 
Q 2900 3844 2670 4047 
Q 2441 4250 2034 4250 
Q 1625 4250 1398 4047 
Q 1172 3844 1172 3481 
z
" transform="scale(0.015625)"/>
       </defs>
       <use xlink:href="#DejaVuSans-53"/>
       <use xlink:href="#DejaVuSans-70" x="63.476562"/>
       <use xlink:href="#DejaVuSans-6c" x="126.953125"/>
       <use xlink:href="#DejaVuSans-69" x="154.736328"/>
       <use xlink:href="#DejaVuSans-74" x="182.519531"/>
       <use xlink:href="#DejaVuSans-38" x="221.728516"/>
      </g>
     </g>
    </g>
    <g id="xtick_10">
     <g id="line2d_10">
      <g>
       <use xlink:href="#m938fd4e5f5" x="519.46225" y="512.64" style="stroke: #000000; stroke-width: 0.8"/>
      </g>
     </g>
     <g id="text_10">
      <!-- Split9 -->
      <g transform="translate(511.324445 545.190862) rotate(-45) scale(0.1 -0.1)">
       <defs>
        <path id="DejaVuSans-39" d="M 703 97 
L 703 672 
Q 941 559 1184 500 
Q 1428 441 1663 441 
Q 2288 441 2617 861 
Q 2947 1281 2994 2138 
Q 2813 1869 2534 1725 
Q 2256 1581 1919 1581 
Q 1219 1581 811 2004 
Q 403 2428 403 3163 
Q 403 3881 828 4315 
Q 1253 4750 1959 4750 
Q 2769 4750 3195 4129 
Q 3622 3509 3622 2328 
Q 3622 1225 3098 567 
Q 2575 -91 1691 -91 
Q 1453 -91 1209 -44 
Q 966 3 703 97 
z
M 1959 2075 
Q 2384 2075 2632 2365 
Q 2881 2656 2881 3163 
Q 2881 3666 2632 3958 
Q 2384 4250 1959 4250 
Q 1534 4250 1286 3958 
Q 1038 3666 1038 3163 
Q 1038 2656 1286 2365 
Q 1534 2075 1959 2075 
z
" transform="scale(0.015625)"/>
       </defs>
       <use xlink:href="#DejaVuSans-53"/>
       <use xlink:href="#DejaVuSans-70" x="63.476562"/>
       <use xlink:href="#DejaVuSans-6c" x="126.953125"/>
       <use xlink:href="#DejaVuSans-69" x="154.736328"/>
       <use xlink:href="#DejaVuSans-74" x="182.519531"/>
       <use xlink:href="#DejaVuSans-39" x="221.728516"/>
      </g>
     </g>
    </g>
    <g id="xtick_11">
     <g id="line2d_11">
      <g>
       <use xlink:href="#m938fd4e5f5" x="562.451464" y="512.64" style="stroke: #000000; stroke-width: 0.8"/>
      </g>
     </g>
     <g id="text_11">
      <!-- Split10 -->
      <g transform="translate(552.064176 549.689828) rotate(-45) scale(0.1 -0.1)">
       <defs>
        <path id="DejaVuSans-30" d="M 2034 4250 
Q 1547 4250 1301 3770 
Q 1056 3291 1056 2328 
Q 1056 1369 1301 889 
Q 1547 409 2034 409 
Q 2525 409 2770 889 
Q 3016 1369 3016 2328 
Q 3016 3291 2770 3770 
Q 2525 4250 2034 4250 
z
M 2034 4750 
Q 2819 4750 3233 4129 
Q 3647 3509 3647 2328 
Q 3647 1150 3233 529 
Q 2819 -91 2034 -91 
Q 1250 -91 836 529 
Q 422 1150 422 2328 
Q 422 3509 836 4129 
Q 1250 4750 2034 4750 
z
" transform="scale(0.015625)"/>
       </defs>
       <use xlink:href="#DejaVuSans-53"/>
       <use xlink:href="#DejaVuSans-70" x="63.476562"/>
       <use xlink:href="#DejaVuSans-6c" x="126.953125"/>
       <use xlink:href="#DejaVuSans-69" x="154.736328"/>
       <use xlink:href="#DejaVuSans-74" x="182.519531"/>
       <use xlink:href="#DejaVuSans-31" x="221.728516"/>
       <use xlink:href="#DejaVuSans-30" x="285.351562"/>
      </g>
     </g>
    </g>
    <g id="xtick_12">
     <g id="line2d_12">
      <g>
       <use xlink:href="#m938fd4e5f5" x="605.440678" y="512.64" style="stroke: #000000; stroke-width: 0.8"/>
      </g>
     </g>
     <g id="text_12">
      <!-- Split11 -->
      <g transform="translate(595.05339 549.689828) rotate(-45) scale(0.1 -0.1)">
       <use xlink:href="#DejaVuSans-53"/>
       <use xlink:href="#DejaVuSans-70" x="63.476562"/>
       <use xlink:href="#DejaVuSans-6c" x="126.953125"/>
       <use xlink:href="#DejaVuSans-69" x="154.736328"/>
       <use xlink:href="#DejaVuSans-74" x="182.519531"/>
       <use xlink:href="#DejaVuSans-31" x="221.728516"/>
       <use xlink:href="#DejaVuSans-31" x="285.351562"/>
      </g>
     </g>
    </g>
    <g id="text_13">
     <!-- Splits -->
     <g transform="translate(355.308594 567.320771) scale(0.1 -0.1)">
      <use xlink:href="#DejaVuSans-53"/>
      <use xlink:href="#DejaVuSans-70" x="63.476562"/>
      <use xlink:href="#DejaVuSans-6c" x="126.953125"/>
      <use xlink:href="#DejaVuSans-69" x="154.736328"/>
      <use xlink:href="#DejaVuSans-74" x="182.519531"/>
      <use xlink:href="#DejaVuSans-73" x="221.728516"/>
     </g>
    </g>
   </g>
   <g id="matplotlib.axis_2">
    <g id="ytick_1">
     <g id="line2d_13">
      <defs>
       <path id="m36d7f585fa" d="M 0 0 
L -3.5 0 
" style="stroke: #000000; stroke-width: 0.8"/>
      </defs>
      <g>
       <use xlink:href="#m36d7f585fa" x="90" y="512.64" style="stroke: #000000; stroke-width: 0.8"/>
      </g>
     </g>
     <g id="text_14">
      <!-- 0.00 -->
      <g transform="translate(60.734375 516.439219) scale(0.1 -0.1)">
       <defs>
        <path id="DejaVuSans-2e" d="M 684 794 
L 1344 794 
L 1344 0 
L 684 0 
L 684 794 
z
" transform="scale(0.015625)"/>
       </defs>
       <use xlink:href="#DejaVuSans-30"/>
       <use xlink:href="#DejaVuSans-2e" x="63.623047"/>
       <use xlink:href="#DejaVuSans-30" x="95.410156"/>
       <use xlink:href="#DejaVuSans-30" x="159.033203"/>
      </g>
     </g>
    </g>
    <g id="ytick_2">
     <g id="line2d_14">
      <g>
       <use xlink:href="#m36d7f585fa" x="90" y="427.602423" style="stroke: #000000; stroke-width: 0.8"/>
      </g>
     </g>
     <g id="text_15">
      <!-- 0.05 -->
      <g transform="translate(60.734375 431.401642) scale(0.1 -0.1)">
       <use xlink:href="#DejaVuSans-30"/>
       <use xlink:href="#DejaVuSans-2e" x="63.623047"/>
       <use xlink:href="#DejaVuSans-30" x="95.410156"/>
       <use xlink:href="#DejaVuSans-35" x="159.033203"/>
      </g>
     </g>
    </g>
    <g id="ytick_3">
     <g id="line2d_15">
      <g>
       <use xlink:href="#m36d7f585fa" x="90" y="342.564846" style="stroke: #000000; stroke-width: 0.8"/>
      </g>
     </g>
     <g id="text_16">
      <!-- 0.10 -->
      <g transform="translate(60.734375 346.364065) scale(0.1 -0.1)">
       <use xlink:href="#DejaVuSans-30"/>
       <use xlink:href="#DejaVuSans-2e" x="63.623047"/>
       <use xlink:href="#DejaVuSans-31" x="95.410156"/>
       <use xlink:href="#DejaVuSans-30" x="159.033203"/>
      </g>
     </g>
    </g>
    <g id="ytick_4">
     <g id="line2d_16">
      <g>
       <use xlink:href="#m36d7f585fa" x="90" y="257.527269" style="stroke: #000000; stroke-width: 0.8"/>
      </g>
     </g>
     <g id="text_17">
      <!-- 0.15 -->
      <g transform="translate(60.734375 261.326488) scale(0.1 -0.1)">
       <use xlink:href="#DejaVuSans-30"/>
       <use xlink:href="#DejaVuSans-2e" x="63.623047"/>
       <use xlink:href="#DejaVuSans-31" x="95.410156"/>
       <use xlink:href="#DejaVuSans-35" x="159.033203"/>
      </g>
     </g>
    </g>
    <g id="ytick_5">
     <g id="line2d_17">
      <g>
       <use xlink:href="#m36d7f585fa" x="90" y="172.489693" style="stroke: #000000; stroke-width: 0.8"/>
      </g>
     </g>
     <g id="text_18">
      <!-- 0.20 -->
      <g transform="translate(60.734375 176.288911) scale(0.1 -0.1)">
       <use xlink:href="#DejaVuSans-30"/>
       <use xlink:href="#DejaVuSans-2e" x="63.623047"/>
       <use xlink:href="#DejaVuSans-32" x="95.410156"/>
       <use xlink:href="#DejaVuSans-30" x="159.033203"/>
      </g>
     </g>
    </g>
    <g id="ytick_6">
     <g id="line2d_18">
      <g>
       <use xlink:href="#m36d7f585fa" x="90" y="87.452116" style="stroke: #000000; stroke-width: 0.8"/>
      </g>
     </g>
     <g id="text_19">
      <!-- 0.25 -->
      <g transform="translate(60.734375 91.251335) scale(0.1 -0.1)">
       <use xlink:href="#DejaVuSans-30"/>
       <use xlink:href="#DejaVuSans-2e" x="63.623047"/>
       <use xlink:href="#DejaVuSans-32" x="95.410156"/>
       <use xlink:href="#DejaVuSans-35" x="159.033203"/>
      </g>
     </g>
    </g>
    <g id="text_20">
     <!-- Jensen Shannon Divergence -->
     <g transform="translate(54.654687 361.089375) rotate(-90) scale(0.1 -0.1)">
      <defs>
       <path id="DejaVuSans-6e" d="M 3513 2113 
L 3513 0 
L 2938 0 
L 2938 2094 
Q 2938 2591 2744 2837 
Q 2550 3084 2163 3084 
Q 1697 3084 1428 2787 
Q 1159 2491 1159 1978 
L 1159 0 
L 581 0 
L 581 3500 
L 1159 3500 
L 1159 2956 
Q 1366 3272 1645 3428 
Q 1925 3584 2291 3584 
Q 2894 3584 3203 3211 
Q 3513 2838 3513 2113 
z
" transform="scale(0.015625)"/>
       <path id="DejaVuSans-20" transform="scale(0.015625)"/>
       <path id="DejaVuSans-68" d="M 3513 2113 
L 3513 0 
L 2938 0 
L 2938 2094 
Q 2938 2591 2744 2837 
Q 2550 3084 2163 3084 
Q 1697 3084 1428 2787 
Q 1159 2491 1159 1978 
L 1159 0 
L 581 0 
L 581 4863 
L 1159 4863 
L 1159 2956 
Q 1366 3272 1645 3428 
Q 1925 3584 2291 3584 
Q 2894 3584 3203 3211 
Q 3513 2838 3513 2113 
z
" transform="scale(0.015625)"/>
       <path id="DejaVuSans-6f" d="M 1959 3097 
Q 1497 3097 1228 2736 
Q 959 2375 959 1747 
Q 959 1119 1226 758 
Q 1494 397 1959 397 
Q 2419 397 2687 759 
Q 2956 1122 2956 1747 
Q 2956 2369 2687 2733 
Q 2419 3097 1959 3097 
z
M 1959 3584 
Q 2709 3584 3137 3096 
Q 3566 2609 3566 1747 
Q 3566 888 3137 398 
Q 2709 -91 1959 -91 
Q 1206 -91 779 398 
Q 353 888 353 1747 
Q 353 2609 779 3096 
Q 1206 3584 1959 3584 
z
" transform="scale(0.015625)"/>
       <path id="DejaVuSans-76" d="M 191 3500 
L 800 3500 
L 1894 563 
L 2988 3500 
L 3597 3500 
L 2284 0 
L 1503 0 
L 191 3500 
z
" transform="scale(0.015625)"/>
       <path id="DejaVuSans-72" d="M 2631 2963 
Q 2534 3019 2420 3045 
Q 2306 3072 2169 3072 
Q 1681 3072 1420 2755 
Q 1159 2438 1159 1844 
L 1159 0 
L 581 0 
L 581 3500 
L 1159 3500 
L 1159 2956 
Q 1341 3275 1631 3429 
Q 1922 3584 2338 3584 
Q 2397 3584 2469 3576 
Q 2541 3569 2628 3553 
L 2631 2963 
z
" transform="scale(0.015625)"/>
       <path id="DejaVuSans-67" d="M 2906 1791 
Q 2906 2416 2648 2759 
Q 2391 3103 1925 3103 
Q 1463 3103 1205 2759 
Q 947 2416 947 1791 
Q 947 1169 1205 825 
Q 1463 481 1925 481 
Q 2391 481 2648 825 
Q 2906 1169 2906 1791 
z
M 3481 434 
Q 3481 -459 3084 -895 
Q 2688 -1331 1869 -1331 
Q 1566 -1331 1297 -1286 
Q 1028 -1241 775 -1147 
L 775 -588 
Q 1028 -725 1275 -790 
Q 1522 -856 1778 -856 
Q 2344 -856 2625 -561 
Q 2906 -266 2906 331 
L 2906 616 
Q 2728 306 2450 153 
Q 2172 0 1784 0 
Q 1141 0 747 490 
Q 353 981 353 1791 
Q 353 2603 747 3093 
Q 1141 3584 1784 3584 
Q 2172 3584 2450 3431 
Q 2728 3278 2906 2969 
L 2906 3500 
L 3481 3500 
L 3481 434 
z
" transform="scale(0.015625)"/>
       <path id="DejaVuSans-63" d="M 3122 3366 
L 3122 2828 
Q 2878 2963 2633 3030 
Q 2388 3097 2138 3097 
Q 1578 3097 1268 2742 
Q 959 2388 959 1747 
Q 959 1106 1268 751 
Q 1578 397 2138 397 
Q 2388 397 2633 464 
Q 2878 531 3122 666 
L 3122 134 
Q 2881 22 2623 -34 
Q 2366 -91 2075 -91 
Q 1284 -91 818 406 
Q 353 903 353 1747 
Q 353 2603 823 3093 
Q 1294 3584 2113 3584 
Q 2378 3584 2631 3529 
Q 2884 3475 3122 3366 
z
" transform="scale(0.015625)"/>
      </defs>
      <use xlink:href="#DejaVuSans-4a"/>
      <use xlink:href="#DejaVuSans-65" x="29.492188"/>
      <use xlink:href="#DejaVuSans-6e" x="91.015625"/>
      <use xlink:href="#DejaVuSans-73" x="154.394531"/>
      <use xlink:href="#DejaVuSans-65" x="206.494141"/>
      <use xlink:href="#DejaVuSans-6e" x="268.017578"/>
      <use xlink:href="#DejaVuSans-20" x="331.396484"/>
      <use xlink:href="#DejaVuSans-53" x="363.183594"/>
      <use xlink:href="#DejaVuSans-68" x="426.660156"/>
      <use xlink:href="#DejaVuSans-61" x="490.039062"/>
      <use xlink:href="#DejaVuSans-6e" x="551.318359"/>
      <use xlink:href="#DejaVuSans-6e" x="614.697266"/>
      <use xlink:href="#DejaVuSans-6f" x="678.076172"/>
      <use xlink:href="#DejaVuSans-6e" x="739.257812"/>
      <use xlink:href="#DejaVuSans-20" x="802.636719"/>
      <use xlink:href="#DejaVuSans-44" x="834.423828"/>
      <use xlink:href="#DejaVuSans-69" x="911.425781"/>
      <use xlink:href="#DejaVuSans-76" x="939.208984"/>
      <use xlink:href="#DejaVuSans-65" x="998.388672"/>
      <use xlink:href="#DejaVuSans-72" x="1059.912109"/>
      <use xlink:href="#DejaVuSans-67" x="1099.275391"/>
      <use xlink:href="#DejaVuSans-65" x="1162.751953"/>
      <use xlink:href="#DejaVuSans-6e" x="1224.275391"/>
      <use xlink:href="#DejaVuSans-63" x="1287.654297"/>
      <use xlink:href="#DejaVuSans-65" x="1342.634766"/>
     </g>
    </g>
   </g>
   <g id="LineCollection_1">
    <path d="M 132.559322 101.19213 
L 132.559322 90.24 
" clip-path="url(#p32b366c40b)" style="fill: none; stroke: #66c282; stroke-width: 1.5"/>
    <path d="M 175.548536 175.819527 
L 175.548536 164.611018 
" clip-path="url(#p32b366c40b)" style="fill: none; stroke: #66c282; stroke-width: 1.5"/>
    <path d="M 218.53775 186.884443 
L 218.53775 176.108292 
" clip-path="url(#p32b366c40b)" style="fill: none; stroke: #66c282; stroke-width: 1.5"/>
    <path d="M 261.526965 195.532887 
L 261.526965 185.32949 
" clip-path="url(#p32b366c40b)" style="fill: none; stroke: #66c282; stroke-width: 1.5"/>
    <path d="M 304.516179 216.579598 
L 304.516179 205.281756 
" clip-path="url(#p32b366c40b)" style="fill: none; stroke: #66c282; stroke-width: 1.5"/>
    <path d="M 347.505393 214.497303 
L 347.505393 204.587093 
" clip-path="url(#p32b366c40b)" style="fill: none; stroke: #66c282; stroke-width: 1.5"/>
    <path d="M 390.494607 221.449061 
L 390.494607 211.410246 
" clip-path="url(#p32b366c40b)" style="fill: none; stroke: #66c282; stroke-width: 1.5"/>
    <path d="M 433.483821 239.174803 
L 433.483821 227.947121 
" clip-path="url(#p32b366c40b)" style="fill: none; stroke: #66c282; stroke-width: 1.5"/>
    <path d="M 476.473035 246.727461 
L 476.473035 236.259363 
" clip-path="url(#p32b366c40b)" style="fill: none; stroke: #66c282; stroke-width: 1.5"/>
    <path d="M 519.46225 251.641538 
L 519.46225 242.291656 
" clip-path="url(#p32b366c40b)" style="fill: none; stroke: #66c282; stroke-width: 1.5"/>
    <path d="M 562.451464 257.797926 
L 562.451464 248.171753 
" clip-path="url(#p32b366c40b)" style="fill: none; stroke: #66c282; stroke-width: 1.5"/>
    <path d="M 605.440678 261.935127 
L 605.440678 253.395425 
" clip-path="url(#p32b366c40b)" style="fill: none; stroke: #66c282; stroke-width: 1.5"/>
   </g>
   <g id="line2d_19">
    <defs>
     <path id="mf3b49be99b" d="M 5 0 
L -5 -0 
" style="stroke: #66c282"/>
    </defs>
    <g clip-path="url(#p32b366c40b)">
     <use xlink:href="#mf3b49be99b" x="132.559322" y="101.19213" style="fill: #66c282; stroke: #66c282"/>
     <use xlink:href="#mf3b49be99b" x="175.548536" y="175.819527" style="fill: #66c282; stroke: #66c282"/>
     <use xlink:href="#mf3b49be99b" x="218.53775" y="186.884443" style="fill: #66c282; stroke: #66c282"/>
     <use xlink:href="#mf3b49be99b" x="261.526965" y="195.532887" style="fill: #66c282; stroke: #66c282"/>
     <use xlink:href="#mf3b49be99b" x="304.516179" y="216.579598" style="fill: #66c282; stroke: #66c282"/>
     <use xlink:href="#mf3b49be99b" x="347.505393" y="214.497303" style="fill: #66c282; stroke: #66c282"/>
     <use xlink:href="#mf3b49be99b" x="390.494607" y="221.449061" style="fill: #66c282; stroke: #66c282"/>
     <use xlink:href="#mf3b49be99b" x="433.483821" y="239.174803" style="fill: #66c282; stroke: #66c282"/>
     <use xlink:href="#mf3b49be99b" x="476.473035" y="246.727461" style="fill: #66c282; stroke: #66c282"/>
     <use xlink:href="#mf3b49be99b" x="519.46225" y="251.641538" style="fill: #66c282; stroke: #66c282"/>
     <use xlink:href="#mf3b49be99b" x="562.451464" y="257.797926" style="fill: #66c282; stroke: #66c282"/>
     <use xlink:href="#mf3b49be99b" x="605.440678" y="261.935127" style="fill: #66c282; stroke: #66c282"/>
    </g>
   </g>
   <g id="line2d_20">
    <g clip-path="url(#p32b366c40b)">
     <use xlink:href="#mf3b49be99b" x="132.559322" y="90.24" style="fill: #66c282; stroke: #66c282"/>
     <use xlink:href="#mf3b49be99b" x="175.548536" y="164.611018" style="fill: #66c282; stroke: #66c282"/>
     <use xlink:href="#mf3b49be99b" x="218.53775" y="176.108292" style="fill: #66c282; stroke: #66c282"/>
     <use xlink:href="#mf3b49be99b" x="261.526965" y="185.32949" style="fill: #66c282; stroke: #66c282"/>
     <use xlink:href="#mf3b49be99b" x="304.516179" y="205.281756" style="fill: #66c282; stroke: #66c282"/>
     <use xlink:href="#mf3b49be99b" x="347.505393" y="204.587093" style="fill: #66c282; stroke: #66c282"/>
     <use xlink:href="#mf3b49be99b" x="390.494607" y="211.410246" style="fill: #66c282; stroke: #66c282"/>
     <use xlink:href="#mf3b49be99b" x="433.483821" y="227.947121" style="fill: #66c282; stroke: #66c282"/>
     <use xlink:href="#mf3b49be99b" x="476.473035" y="236.259363" style="fill: #66c282; stroke: #66c282"/>
     <use xlink:href="#mf3b49be99b" x="519.46225" y="242.291656" style="fill: #66c282; stroke: #66c282"/>
     <use xlink:href="#mf3b49be99b" x="562.451464" y="248.171753" style="fill: #66c282; stroke: #66c282"/>
     <use xlink:href="#mf3b49be99b" x="605.440678" y="253.395425" style="fill: #66c282; stroke: #66c282"/>
    </g>
   </g>
   <g id="line2d_21">
    <path d="M 132.559322 97.172897 
L 175.548536 154.532452 
L 218.53775 183.998485 
L 261.526965 201.84643 
L 304.516179 213.866141 
L 347.505393 222.508587 
L 390.494607 229.011469 
L 433.483821 234.080111 
L 476.473035 238.137858 
L 519.46225 241.467577 
L 562.451464 244.241622 
L 605.440678 246.56888 
" clip-path="url(#p32b366c40b)" style="fill: none; stroke: #d67e4e; stroke-opacity: 0.8; stroke-width: 1.5; stroke-linecap: square"/>
    <defs>
     <path id="ma24d1625db" d="M 0 3 
C 0.795609 3 1.55874 2.683901 2.12132 2.12132 
C 2.683901 1.55874 3 0.795609 3 0 
C 3 -0.795609 2.683901 -1.55874 2.12132 -2.12132 
C 1.55874 -2.683901 0.795609 -3 0 -3 
C -0.795609 -3 -1.55874 -2.683901 -2.12132 -2.12132 
C -2.683901 -1.55874 -3 -0.795609 -3 0 
C -3 0.795609 -2.683901 1.55874 -2.12132 2.12132 
C -1.55874 2.683901 -0.795609 3 0 3 
z
" style="stroke: #d67e4e; stroke-opacity: 0.8"/>
    </defs>
    <g clip-path="url(#p32b366c40b)">
     <use xlink:href="#ma24d1625db" x="132.559322" y="97.172897" style="fill: #d67e4e; fill-opacity: 0.8; stroke: #d67e4e; stroke-opacity: 0.8"/>
     <use xlink:href="#ma24d1625db" x="175.548536" y="154.532452" style="fill: #d67e4e; fill-opacity: 0.8; stroke: #d67e4e; stroke-opacity: 0.8"/>
     <use xlink:href="#ma24d1625db" x="218.53775" y="183.998485" style="fill: #d67e4e; fill-opacity: 0.8; stroke: #d67e4e; stroke-opacity: 0.8"/>
     <use xlink:href="#ma24d1625db" x="261.526965" y="201.84643" style="fill: #d67e4e; fill-opacity: 0.8; stroke: #d67e4e; stroke-opacity: 0.8"/>
     <use xlink:href="#ma24d1625db" x="304.516179" y="213.866141" style="fill: #d67e4e; fill-opacity: 0.8; stroke: #d67e4e; stroke-opacity: 0.8"/>
     <use xlink:href="#ma24d1625db" x="347.505393" y="222.508587" style="fill: #d67e4e; fill-opacity: 0.8; stroke: #d67e4e; stroke-opacity: 0.8"/>
     <use xlink:href="#ma24d1625db" x="390.494607" y="229.011469" style="fill: #d67e4e; fill-opacity: 0.8; stroke: #d67e4e; stroke-opacity: 0.8"/>
     <use xlink:href="#ma24d1625db" x="433.483821" y="234.080111" style="fill: #d67e4e; fill-opacity: 0.8; stroke: #d67e4e; stroke-opacity: 0.8"/>
     <use xlink:href="#ma24d1625db" x="476.473035" y="238.137858" style="fill: #d67e4e; fill-opacity: 0.8; stroke: #d67e4e; stroke-opacity: 0.8"/>
     <use xlink:href="#ma24d1625db" x="519.46225" y="241.467577" style="fill: #d67e4e; fill-opacity: 0.8; stroke: #d67e4e; stroke-opacity: 0.8"/>
     <use xlink:href="#ma24d1625db" x="562.451464" y="244.241622" style="fill: #d67e4e; fill-opacity: 0.8; stroke: #d67e4e; stroke-opacity: 0.8"/>
     <use xlink:href="#ma24d1625db" x="605.440678" y="246.56888" style="fill: #d67e4e; fill-opacity: 0.8; stroke: #d67e4e; stroke-opacity: 0.8"/>
    </g>
   </g>
   <g id="patch_15">
    <path d="M 90 512.64 
L 90 69.12 
" style="fill: none; stroke: #000000; stroke-width: 0.8; stroke-linejoin: miter; stroke-linecap: square"/>
   </g>
   <g id="patch_16">
    <path d="M 648 512.64 
L 648 69.12 
" style="fill: none; stroke: #000000; stroke-width: 0.8; stroke-linejoin: miter; stroke-linecap: square"/>
   </g>
   <g id="patch_17">
    <path d="M 90 512.64 
L 648 512.64 
" style="fill: none; stroke: #000000; stroke-width: 0.8; stroke-linejoin: miter; stroke-linecap: square"/>
   </g>
   <g id="patch_18">
    <path d="M 90 69.12 
L 648 69.12 
" style="fill: none; stroke: #000000; stroke-width: 0.8; stroke-linejoin: miter; stroke-linecap: square"/>
   </g>
   <g id="text_21">
    <!-- Relation of Relative Prompt Length to JSD Scores -->
    <g transform="translate(222.875625 63.12) scale(0.12 -0.12)">
     <defs>
      <path id="DejaVuSans-52" d="M 2841 2188 
Q 3044 2119 3236 1894 
Q 3428 1669 3622 1275 
L 4263 0 
L 3584 0 
L 2988 1197 
Q 2756 1666 2539 1819 
Q 2322 1972 1947 1972 
L 1259 1972 
L 1259 0 
L 628 0 
L 628 4666 
L 2053 4666 
Q 2853 4666 3247 4331 
Q 3641 3997 3641 3322 
Q 3641 2881 3436 2590 
Q 3231 2300 2841 2188 
z
M 1259 4147 
L 1259 2491 
L 2053 2491 
Q 2509 2491 2742 2702 
Q 2975 2913 2975 3322 
Q 2975 3731 2742 3939 
Q 2509 4147 2053 4147 
L 1259 4147 
z
" transform="scale(0.015625)"/>
      <path id="DejaVuSans-66" d="M 2375 4863 
L 2375 4384 
L 1825 4384 
Q 1516 4384 1395 4259 
Q 1275 4134 1275 3809 
L 1275 3500 
L 2222 3500 
L 2222 3053 
L 1275 3053 
L 1275 0 
L 697 0 
L 697 3053 
L 147 3053 
L 147 3500 
L 697 3500 
L 697 3744 
Q 697 4328 969 4595 
Q 1241 4863 1831 4863 
L 2375 4863 
z
" transform="scale(0.015625)"/>
      <path id="DejaVuSans-50" d="M 1259 4147 
L 1259 2394 
L 2053 2394 
Q 2494 2394 2734 2622 
Q 2975 2850 2975 3272 
Q 2975 3691 2734 3919 
Q 2494 4147 2053 4147 
L 1259 4147 
z
M 628 4666 
L 2053 4666 
Q 2838 4666 3239 4311 
Q 3641 3956 3641 3272 
Q 3641 2581 3239 2228 
Q 2838 1875 2053 1875 
L 1259 1875 
L 1259 0 
L 628 0 
L 628 4666 
z
" transform="scale(0.015625)"/>
      <path id="DejaVuSans-6d" d="M 3328 2828 
Q 3544 3216 3844 3400 
Q 4144 3584 4550 3584 
Q 5097 3584 5394 3201 
Q 5691 2819 5691 2113 
L 5691 0 
L 5113 0 
L 5113 2094 
Q 5113 2597 4934 2840 
Q 4756 3084 4391 3084 
Q 3944 3084 3684 2787 
Q 3425 2491 3425 1978 
L 3425 0 
L 2847 0 
L 2847 2094 
Q 2847 2600 2669 2842 
Q 2491 3084 2119 3084 
Q 1678 3084 1418 2786 
Q 1159 2488 1159 1978 
L 1159 0 
L 581 0 
L 581 3500 
L 1159 3500 
L 1159 2956 
Q 1356 3278 1631 3431 
Q 1906 3584 2284 3584 
Q 2666 3584 2933 3390 
Q 3200 3197 3328 2828 
z
" transform="scale(0.015625)"/>
      <path id="DejaVuSans-4c" d="M 628 4666 
L 1259 4666 
L 1259 531 
L 3531 531 
L 3531 0 
L 628 0 
L 628 4666 
z
" transform="scale(0.015625)"/>
     </defs>
     <use xlink:href="#DejaVuSans-52"/>
     <use xlink:href="#DejaVuSans-65" x="64.982422"/>
     <use xlink:href="#DejaVuSans-6c" x="126.505859"/>
     <use xlink:href="#DejaVuSans-61" x="154.289062"/>
     <use xlink:href="#DejaVuSans-74" x="215.568359"/>
     <use xlink:href="#DejaVuSans-69" x="254.777344"/>
     <use xlink:href="#DejaVuSans-6f" x="282.560547"/>
     <use xlink:href="#DejaVuSans-6e" x="343.742188"/>
     <use xlink:href="#DejaVuSans-20" x="407.121094"/>
     <use xlink:href="#DejaVuSans-6f" x="438.908203"/>
     <use xlink:href="#DejaVuSans-66" x="500.089844"/>
     <use xlink:href="#DejaVuSans-20" x="535.294922"/>
     <use xlink:href="#DejaVuSans-52" x="567.082031"/>
     <use xlink:href="#DejaVuSans-65" x="632.064453"/>
     <use xlink:href="#DejaVuSans-6c" x="693.587891"/>
     <use xlink:href="#DejaVuSans-61" x="721.371094"/>
     <use xlink:href="#DejaVuSans-74" x="782.650391"/>
     <use xlink:href="#DejaVuSans-69" x="821.859375"/>
     <use xlink:href="#DejaVuSans-76" x="849.642578"/>
     <use xlink:href="#DejaVuSans-65" x="908.822266"/>
     <use xlink:href="#DejaVuSans-20" x="970.345703"/>
     <use xlink:href="#DejaVuSans-50" x="1002.132812"/>
     <use xlink:href="#DejaVuSans-72" x="1060.685547"/>
     <use xlink:href="#DejaVuSans-6f" x="1099.548828"/>
     <use xlink:href="#DejaVuSans-6d" x="1160.730469"/>
     <use xlink:href="#DejaVuSans-70" x="1258.142578"/>
     <use xlink:href="#DejaVuSans-74" x="1321.619141"/>
     <use xlink:href="#DejaVuSans-20" x="1360.828125"/>
     <use xlink:href="#DejaVuSans-4c" x="1392.615234"/>
     <use xlink:href="#DejaVuSans-65" x="1446.578125"/>
     <use xlink:href="#DejaVuSans-6e" x="1508.101562"/>
     <use xlink:href="#DejaVuSans-67" x="1571.480469"/>
     <use xlink:href="#DejaVuSans-74" x="1634.957031"/>
     <use xlink:href="#DejaVuSans-68" x="1674.166016"/>
     <use xlink:href="#DejaVuSans-20" x="1737.544922"/>
     <use xlink:href="#DejaVuSans-74" x="1769.332031"/>
     <use xlink:href="#DejaVuSans-6f" x="1808.541016"/>
     <use xlink:href="#DejaVuSans-20" x="1869.722656"/>
     <use xlink:href="#DejaVuSans-4a" x="1901.509766"/>
     <use xlink:href="#DejaVuSans-53" x="1931.001953"/>
     <use xlink:href="#DejaVuSans-44" x="1994.478516"/>
     <use xlink:href="#DejaVuSans-20" x="2071.480469"/>
     <use xlink:href="#DejaVuSans-53" x="2103.267578"/>
     <use xlink:href="#DejaVuSans-63" x="2166.744141"/>
     <use xlink:href="#DejaVuSans-6f" x="2221.724609"/>
     <use xlink:href="#DejaVuSans-72" x="2282.90625"/>
     <use xlink:href="#DejaVuSans-65" x="2321.769531"/>
     <use xlink:href="#DejaVuSans-73" x="2383.292969"/>
    </g>
   </g>
   <g id="legend_1">
    <g id="patch_19">
     <path d="M 455.7 106.598125 
L 641 106.598125 
Q 643 106.598125 643 104.598125 
L 643 76.12 
Q 643 74.12 641 74.12 
L 455.7 74.12 
Q 453.7 74.12 453.7 76.12 
L 453.7 104.598125 
Q 453.7 106.598125 455.7 106.598125 
z
" style="fill: #ffffff; opacity: 0.8; stroke: #cccccc; stroke-linejoin: miter"/>
    </g>
    <g id="patch_20">
     <path d="M 457.7 85.718437 
L 477.7 85.718437 
L 477.7 78.718437 
L 457.7 78.718437 
z
" style="fill: #66c282; opacity: 0.8"/>
    </g>
    <g id="text_22">
     <!-- JSD Scores -->
     <g transform="translate(485.7 85.718437) scale(0.1 -0.1)">
      <use xlink:href="#DejaVuSans-4a"/>
      <use xlink:href="#DejaVuSans-53" x="29.492188"/>
      <use xlink:href="#DejaVuSans-44" x="92.96875"/>
      <use xlink:href="#DejaVuSans-20" x="169.970703"/>
      <use xlink:href="#DejaVuSans-53" x="201.757812"/>
      <use xlink:href="#DejaVuSans-63" x="265.234375"/>
      <use xlink:href="#DejaVuSans-6f" x="320.214844"/>
      <use xlink:href="#DejaVuSans-72" x="381.396484"/>
      <use xlink:href="#DejaVuSans-65" x="420.259766"/>
      <use xlink:href="#DejaVuSans-73" x="481.783203"/>
     </g>
    </g>
    <g id="line2d_22">
     <path d="M 457.7 96.998125 
L 477.7 96.998125 
" style="fill: none; stroke: #d67e4e; stroke-opacity: 0.8; stroke-width: 1.5; stroke-linecap: square"/>
    </g>
    <g id="line2d_23">
     <g>
      <use xlink:href="#ma24d1625db" x="467.7" y="96.998125" style="fill: #d67e4e; fill-opacity: 0.8; stroke: #d67e4e; stroke-opacity: 0.8"/>
     </g>
    </g>
    <g id="text_23">
     <!-- $\beta_0 + \beta_1 \cdot RelativePromptLength$ -->
     <g transform="translate(485.7 100.498125) scale(0.1 -0.1)">
      <defs>
       <path id="DejaVuSans-Oblique-3b2" d="M 872 216 
L 572 -1331 
L -6 -1331 
L 928 3478 
Q 1206 4903 2538 4903 
Q 3888 4903 3659 3700 
Q 3503 2844 2894 2531 
Q 3713 2250 3553 1416 
Q 3272 -69 1759 -66 
Q 1097 -63 872 216 
z
M 1019 966 
Q 1259 422 1875 425 
Q 2775 425 2966 1406 
Q 3138 2288 1675 2219 
L 1778 2750 
Q 2909 2731 3106 3750 
Q 3241 4438 2509 4434 
Q 1691 4434 1503 3459 
L 1019 966 
z
" transform="scale(0.015625)"/>
       <path id="DejaVuSans-2b" d="M 2944 4013 
L 2944 2272 
L 4684 2272 
L 4684 1741 
L 2944 1741 
L 2944 0 
L 2419 0 
L 2419 1741 
L 678 1741 
L 678 2272 
L 2419 2272 
L 2419 4013 
L 2944 4013 
z
" transform="scale(0.015625)"/>
       <path id="DejaVuSans-22c5" d="M 684 2619 
L 1344 2619 
L 1344 1825 
L 684 1825 
L 684 2619 
z
" transform="scale(0.015625)"/>
       <path id="DejaVuSans-Oblique-52" d="M 1613 4147 
L 1294 2491 
L 2106 2491 
Q 2584 2491 2879 2755 
Q 3175 3019 3175 3444 
Q 3175 3784 2976 3965 
Q 2778 4147 2406 4147 
L 1613 4147 
z
M 2772 2241 
Q 2972 2194 3105 2009 
Q 3238 1825 3413 1275 
L 3809 0 
L 3144 0 
L 2778 1197 
Q 2638 1659 2453 1815 
Q 2269 1972 1888 1972 
L 1191 1972 
L 806 0 
L 172 0 
L 1081 4666 
L 2503 4666 
Q 3150 4666 3495 4373 
Q 3841 4081 3841 3531 
Q 3841 3044 3547 2687 
Q 3253 2331 2772 2241 
z
" transform="scale(0.015625)"/>
       <path id="DejaVuSans-Oblique-65" d="M 3078 2063 
Q 3088 2113 3092 2166 
Q 3097 2219 3097 2272 
Q 3097 2653 2873 2875 
Q 2650 3097 2266 3097 
Q 1838 3097 1509 2826 
Q 1181 2556 1013 2059 
L 3078 2063 
z
M 3578 1613 
L 903 1613 
Q 884 1494 878 1425 
Q 872 1356 872 1306 
Q 872 872 1139 634 
Q 1406 397 1894 397 
Q 2269 397 2603 481 
Q 2938 566 3225 728 
L 3116 159 
Q 2806 34 2476 -28 
Q 2147 -91 1806 -91 
Q 1078 -91 686 257 
Q 294 606 294 1247 
Q 294 1794 489 2264 
Q 684 2734 1063 3103 
Q 1306 3334 1642 3459 
Q 1978 3584 2356 3584 
Q 2950 3584 3301 3228 
Q 3653 2872 3653 2272 
Q 3653 2128 3634 1964 
Q 3616 1800 3578 1613 
z
" transform="scale(0.015625)"/>
       <path id="DejaVuSans-Oblique-6c" d="M 1172 4863 
L 1747 4863 
L 800 0 
L 225 0 
L 1172 4863 
z
" transform="scale(0.015625)"/>
       <path id="DejaVuSans-Oblique-61" d="M 3438 1997 
L 3047 0 
L 2472 0 
L 2578 531 
Q 2325 219 2001 64 
Q 1678 -91 1281 -91 
Q 834 -91 548 182 
Q 263 456 263 884 
Q 263 1497 752 1853 
Q 1241 2209 2100 2209 
L 2900 2209 
L 2931 2363 
Q 2938 2388 2941 2417 
Q 2944 2447 2944 2509 
Q 2944 2788 2717 2942 
Q 2491 3097 2081 3097 
Q 1800 3097 1504 3025 
Q 1209 2953 897 2809 
L 997 3341 
Q 1322 3463 1633 3523 
Q 1944 3584 2234 3584 
Q 2853 3584 3176 3315 
Q 3500 3047 3500 2534 
Q 3500 2431 3484 2292 
Q 3469 2153 3438 1997 
z
M 2816 1759 
L 2241 1759 
Q 1534 1759 1195 1570 
Q 856 1381 856 984 
Q 856 709 1029 553 
Q 1203 397 1509 397 
Q 1978 397 2328 733 
Q 2678 1069 2791 1631 
L 2816 1759 
z
" transform="scale(0.015625)"/>
       <path id="DejaVuSans-Oblique-74" d="M 2706 3500 
L 2619 3053 
L 1472 3053 
L 1100 1153 
Q 1081 1047 1072 975 
Q 1063 903 1063 863 
Q 1063 663 1183 572 
Q 1303 481 1569 481 
L 2150 481 
L 2053 0 
L 1503 0 
Q 991 0 739 200 
Q 488 400 488 806 
Q 488 878 497 964 
Q 506 1050 525 1153 
L 897 3053 
L 409 3053 
L 500 3500 
L 978 3500 
L 1172 4494 
L 1747 4494 
L 1556 3500 
L 2706 3500 
z
" transform="scale(0.015625)"/>
       <path id="DejaVuSans-Oblique-69" d="M 1172 4863 
L 1747 4863 
L 1606 4134 
L 1031 4134 
L 1172 4863 
z
M 909 3500 
L 1484 3500 
L 800 0 
L 225 0 
L 909 3500 
z
" transform="scale(0.015625)"/>
       <path id="DejaVuSans-Oblique-76" d="M 459 3500 
L 1069 3500 
L 1581 525 
L 3256 3500 
L 3866 3500 
L 1875 0 
L 1100 0 
L 459 3500 
z
" transform="scale(0.015625)"/>
       <path id="DejaVuSans-Oblique-50" d="M 1081 4666 
L 2541 4666 
Q 3178 4666 3512 4369 
Q 3847 4072 3847 3500 
Q 3847 2731 3353 2303 
Q 2859 1875 1966 1875 
L 1172 1875 
L 806 0 
L 172 0 
L 1081 4666 
z
M 1613 4147 
L 1275 2394 
L 2069 2394 
Q 2606 2394 2893 2669 
Q 3181 2944 3181 3456 
Q 3181 3784 2986 3965 
Q 2791 4147 2438 4147 
L 1613 4147 
z
" transform="scale(0.015625)"/>
       <path id="DejaVuSans-Oblique-72" d="M 2853 2969 
Q 2766 3016 2653 3041 
Q 2541 3066 2413 3066 
Q 1953 3066 1609 2717 
Q 1266 2369 1153 1784 
L 800 0 
L 225 0 
L 909 3500 
L 1484 3500 
L 1375 2956 
Q 1603 3259 1920 3421 
Q 2238 3584 2597 3584 
Q 2691 3584 2781 3573 
Q 2872 3563 2963 3538 
L 2853 2969 
z
" transform="scale(0.015625)"/>
       <path id="DejaVuSans-Oblique-6f" d="M 1625 -91 
Q 1009 -91 651 289 
Q 294 669 294 1325 
Q 294 1706 417 2101 
Q 541 2497 738 2766 
Q 1047 3184 1428 3384 
Q 1809 3584 2291 3584 
Q 2888 3584 3255 3212 
Q 3622 2841 3622 2241 
Q 3622 1825 3500 1412 
Q 3378 1000 3181 728 
Q 2875 309 2494 109 
Q 2113 -91 1625 -91 
z
M 891 1344 
Q 891 869 1089 633 
Q 1288 397 1691 397 
Q 2269 397 2648 901 
Q 3028 1406 3028 2181 
Q 3028 2634 2825 2865 
Q 2622 3097 2228 3097 
Q 1903 3097 1650 2945 
Q 1397 2794 1197 2484 
Q 1050 2253 970 1956 
Q 891 1659 891 1344 
z
" transform="scale(0.015625)"/>
       <path id="DejaVuSans-Oblique-6d" d="M 5747 2113 
L 5338 0 
L 4763 0 
L 5166 2094 
Q 5191 2228 5203 2325 
Q 5216 2422 5216 2491 
Q 5216 2772 5059 2928 
Q 4903 3084 4622 3084 
Q 4203 3084 3875 2770 
Q 3547 2456 3450 1953 
L 3066 0 
L 2491 0 
L 2900 2094 
Q 2925 2209 2937 2307 
Q 2950 2406 2950 2484 
Q 2950 2769 2794 2926 
Q 2638 3084 2363 3084 
Q 1938 3084 1609 2770 
Q 1281 2456 1184 1953 
L 800 0 
L 225 0 
L 909 3500 
L 1484 3500 
L 1375 2956 
Q 1609 3263 1923 3423 
Q 2238 3584 2597 3584 
Q 2978 3584 3223 3384 
Q 3469 3184 3519 2828 
Q 3781 3197 4126 3390 
Q 4472 3584 4856 3584 
Q 5306 3584 5551 3325 
Q 5797 3066 5797 2591 
Q 5797 2488 5784 2364 
Q 5772 2241 5747 2113 
z
" transform="scale(0.015625)"/>
       <path id="DejaVuSans-Oblique-70" d="M 3175 2156 
Q 3175 2616 2975 2859 
Q 2775 3103 2400 3103 
Q 2144 3103 1911 2972 
Q 1678 2841 1497 2591 
Q 1319 2344 1212 1994 
Q 1106 1644 1106 1300 
Q 1106 863 1306 627 
Q 1506 391 1875 391 
Q 2147 391 2380 519 
Q 2613 647 2778 891 
Q 2956 1147 3065 1494 
Q 3175 1841 3175 2156 
z
M 1394 2969 
Q 1625 3272 1939 3428 
Q 2253 3584 2638 3584 
Q 3175 3584 3472 3232 
Q 3769 2881 3769 2247 
Q 3769 1728 3584 1258 
Q 3400 788 3053 416 
Q 2822 169 2531 39 
Q 2241 -91 1919 -91 
Q 1547 -91 1294 64 
Q 1041 219 916 525 
L 556 -1331 
L -19 -1331 
L 922 3500 
L 1497 3500 
L 1394 2969 
z
" transform="scale(0.015625)"/>
       <path id="DejaVuSans-Oblique-4c" d="M 1075 4666 
L 1709 4666 
L 909 525 
L 3181 525 
L 3078 0 
L 172 0 
L 1075 4666 
z
" transform="scale(0.015625)"/>
       <path id="DejaVuSans-Oblique-6e" d="M 3566 2113 
L 3156 0 
L 2578 0 
L 2988 2091 
Q 3016 2238 3031 2350 
Q 3047 2463 3047 2528 
Q 3047 2791 2881 2937 
Q 2716 3084 2419 3084 
Q 1956 3084 1622 2776 
Q 1288 2469 1184 1941 
L 800 0 
L 225 0 
L 903 3500 
L 1478 3500 
L 1363 2950 
Q 1603 3253 1940 3418 
Q 2278 3584 2650 3584 
Q 3113 3584 3367 3334 
Q 3622 3084 3622 2631 
Q 3622 2519 3608 2391 
Q 3594 2263 3566 2113 
z
" transform="scale(0.015625)"/>
       <path id="DejaVuSans-Oblique-67" d="M 3816 3500 
L 3219 434 
Q 3047 -456 2561 -893 
Q 2075 -1331 1253 -1331 
Q 950 -1331 690 -1286 
Q 431 -1241 206 -1147 
L 313 -588 
Q 525 -725 762 -790 
Q 1000 -856 1269 -856 
Q 1816 -856 2167 -557 
Q 2519 -259 2631 300 
L 2681 563 
Q 2441 288 2122 144 
Q 1803 0 1434 0 
Q 903 0 598 351 
Q 294 703 294 1319 
Q 294 1803 478 2267 
Q 663 2731 997 3091 
Q 1219 3328 1514 3456 
Q 1809 3584 2131 3584 
Q 2484 3584 2746 3420 
Q 3009 3256 3138 2956 
L 3238 3500 
L 3816 3500 
z
M 2950 2216 
Q 2950 2641 2750 2872 
Q 2550 3103 2181 3103 
Q 1953 3103 1747 3012 
Q 1541 2922 1394 2759 
Q 1156 2491 1023 2127 
Q 891 1763 891 1375 
Q 891 944 1092 712 
Q 1294 481 1672 481 
Q 2219 481 2584 976 
Q 2950 1472 2950 2216 
z
" transform="scale(0.015625)"/>
       <path id="DejaVuSans-Oblique-68" d="M 3566 2113 
L 3156 0 
L 2578 0 
L 2988 2091 
Q 3016 2238 3031 2350 
Q 3047 2463 3047 2528 
Q 3047 2791 2881 2937 
Q 2716 3084 2419 3084 
Q 1956 3084 1617 2771 
Q 1278 2459 1178 1941 
L 800 0 
L 225 0 
L 1172 4863 
L 1747 4863 
L 1375 2950 
Q 1594 3244 1934 3414 
Q 2275 3584 2650 3584 
Q 3113 3584 3367 3334 
Q 3622 3084 3622 2631 
Q 3622 2519 3608 2391 
Q 3594 2263 3566 2113 
z
" transform="scale(0.015625)"/>
      </defs>
      <use xlink:href="#DejaVuSans-Oblique-3b2" transform="translate(0 0.390625)"/>
      <use xlink:href="#DejaVuSans-30" transform="translate(63.818359 -16.015625) scale(0.7)"/>
      <use xlink:href="#DejaVuSans-2b" transform="translate(130.571289 0.390625)"/>
      <use xlink:href="#DejaVuSans-Oblique-3b2" transform="translate(233.842773 0.390625)"/>
      <use xlink:href="#DejaVuSans-31" transform="translate(297.661133 -16.015625) scale(0.7)"/>
      <use xlink:href="#DejaVuSans-22c5" transform="translate(364.414062 0.390625)"/>
      <use xlink:href="#DejaVuSans-Oblique-52" transform="translate(415.683594 0.390625)"/>
      <use xlink:href="#DejaVuSans-Oblique-65" transform="translate(485.166016 0.390625)"/>
      <use xlink:href="#DejaVuSans-Oblique-6c" transform="translate(546.689453 0.390625)"/>
      <use xlink:href="#DejaVuSans-Oblique-61" transform="translate(574.472656 0.390625)"/>
      <use xlink:href="#DejaVuSans-Oblique-74" transform="translate(635.751953 0.390625)"/>
      <use xlink:href="#DejaVuSans-Oblique-69" transform="translate(674.960938 0.390625)"/>
      <use xlink:href="#DejaVuSans-Oblique-76" transform="translate(702.744141 0.390625)"/>
      <use xlink:href="#DejaVuSans-Oblique-65" transform="translate(761.923828 0.390625)"/>
      <use xlink:href="#DejaVuSans-Oblique-50" transform="translate(823.447266 0.390625)"/>
      <use xlink:href="#DejaVuSans-Oblique-72" transform="translate(883.75 0.390625)"/>
      <use xlink:href="#DejaVuSans-Oblique-6f" transform="translate(924.863281 0.390625)"/>
      <use xlink:href="#DejaVuSans-Oblique-6d" transform="translate(986.044922 0.390625)"/>
      <use xlink:href="#DejaVuSans-Oblique-70" transform="translate(1083.457031 0.390625)"/>
      <use xlink:href="#DejaVuSans-Oblique-74" transform="translate(1146.933594 0.390625)"/>
      <use xlink:href="#DejaVuSans-Oblique-4c" transform="translate(1186.142578 0.390625)"/>
      <use xlink:href="#DejaVuSans-Oblique-65" transform="translate(1241.855469 0.390625)"/>
      <use xlink:href="#DejaVuSans-Oblique-6e" transform="translate(1303.378906 0.390625)"/>
      <use xlink:href="#DejaVuSans-Oblique-67" transform="translate(1366.757812 0.390625)"/>
      <use xlink:href="#DejaVuSans-Oblique-74" transform="translate(1430.234375 0.390625)"/>
      <use xlink:href="#DejaVuSans-Oblique-68" transform="translate(1469.443359 0.390625)"/>
     </g>
    </g>
   </g>
  </g>
 </g>
 <defs>
  <clipPath id="p32b366c40b">
   <rect x="90" y="69.12" width="558" height="443.52"/>
  </clipPath>
 </defs>
</svg>
